<svg width="93" height="19" viewBox="0 0 93 19" fill="none" xmlns="http://www.w3.org/2000/svg">
<path d="M87.5 7.05719e-05L81.2595 9.71549L92.7935 10.2622L87.5 7.05719e-05ZM0.576927 14.5941C0.0765073 14.8278 -0.139755 15.4229 0.0939024 15.9233C0.32756 16.4237 0.922645 16.64 1.42307 16.4063L1 15.5002L0.576927 14.5941ZM86.3375 3.43422C86.2821 3.98372 86.6826 4.47411 87.2321 4.52955C87.7816 4.58498 88.272 4.18447 88.3274 3.63498L87.3325 3.5346L86.3375 3.43422ZM86.4407 10.7907C86.6846 10.2952 86.4805 9.69579 85.985 9.45194C85.4895 9.20809 84.8901 9.41212 84.6462 9.90766L85.5435 10.3492L86.4407 10.7907ZM80.3409 14.5924C79.8639 14.8707 79.7028 15.483 79.9811 15.96C80.2594 16.4371 80.8718 16.5982 81.3488 16.3198L80.8449 15.4561L80.3409 14.5924ZM74.2536 18.5032C74.8021 18.4386 75.1943 17.9415 75.1296 17.393C75.0649 16.8445 74.5678 16.4523 74.0193 16.517L74.1365 17.5101L74.2536 18.5032ZM67.1646 16.6123C66.6135 16.5768 66.1379 16.9948 66.1025 17.546C66.067 18.0971 66.485 18.5727 67.0362 18.6082L67.1004 17.6102L67.1646 16.6123ZM59.9234 17.8216C60.4699 17.9015 60.9776 17.5232 61.0575 16.9768C61.1373 16.4303 60.7591 15.9225 60.2126 15.8427L60.068 16.8322L59.9234 17.8216ZM53.2818 14.6961C52.7381 14.5989 52.2186 14.9609 52.1215 15.5046C52.0244 16.0483 52.3864 16.5678 52.9301 16.6649L53.1059 15.6805L53.2818 14.6961ZM45.9801 15.4018C46.5236 15.4999 47.0437 15.1389 47.1419 14.5954C47.24 14.0519 46.8789 13.5317 46.3354 13.4336L46.1578 14.4177L45.9801 15.4018ZM39.3538 12.2359C38.8084 12.1493 38.2959 12.5212 38.2093 13.0666C38.1226 13.6121 38.4945 14.1245 39.0399 14.2112L39.1969 13.2235L39.3538 12.2359ZM32.0885 13.2448C32.6371 13.3081 33.1332 12.9147 33.1966 12.3661C33.2599 11.8175 32.8665 11.3213 32.3179 11.258L32.2032 12.2514L32.0885 13.2448ZM25.2169 10.6603C24.6652 10.6334 24.1962 11.0588 24.1693 11.6104C24.1424 12.162 24.5678 12.631 25.1194 12.6579L25.1681 11.6591L25.2169 10.6603ZM18.1547 12.6294C18.7064 12.6041 19.1331 12.1364 19.1078 11.5847C19.0825 11.033 18.6148 10.6062 18.063 10.6315L18.1089 11.6305L18.1547 12.6294ZM10.919 11.4005C10.3751 11.4965 10.012 12.0152 10.108 12.5591C10.204 13.103 10.7227 13.4661 11.2666 13.3701L11.0928 12.3853L10.919 11.4005ZM4.60175 15.1057C5.12222 14.921 5.39435 14.3493 5.20959 13.8288C5.02483 13.3083 4.45313 13.0362 3.93267 13.221L4.26721 14.1633L4.60175 15.1057ZM85.5435 10.3492L84.6462 9.90766C83.6021 12.0295 82.1469 13.5387 80.3409 14.5924L80.8449 15.4561L81.3488 16.3198C83.4962 15.0669 85.224 13.2632 86.4407 10.7907L85.5435 10.3492ZM74.1365 17.5101L74.0193 16.517C71.9452 16.7616 69.6504 16.7723 67.1646 16.6123L67.1004 17.6102L67.0362 18.6082C69.5995 18.7732 72.0226 18.7664 74.2536 18.5032L74.1365 17.5101ZM60.068 16.8322L60.2126 15.8427C57.9843 15.517 55.6683 15.1224 53.2818 14.6961L53.1059 15.6805L52.9301 16.6649C55.3248 17.0927 57.6645 17.4915 59.9234 17.8216L60.068 16.8322ZM46.1578 14.4177L46.3354 13.4336C44.0429 13.0197 41.7092 12.6102 39.3538 12.2359L39.1969 13.2235L39.0399 14.2112C41.3752 14.5822 43.6932 14.9889 45.9801 15.4018L46.1578 14.4177ZM32.2032 12.2514L32.3179 11.258C29.953 10.9848 27.5802 10.7756 25.2169 10.6603L25.1681 11.6591L25.1194 12.6579C27.4308 12.7707 29.7588 12.9757 32.0885 13.2448L32.2032 12.2514ZM18.1089 11.6305L18.063 10.6315C15.6498 10.7422 13.262 10.987 10.919 11.4005L11.0928 12.3853L11.2666 13.3701C13.514 12.9735 15.8155 12.7367 18.1547 12.6294L18.1089 11.6305ZM4.26721 14.1633L3.93267 13.221C2.79637 13.6243 1.6769 14.0806 0.576927 14.5941L1 15.5002L1.42307 16.4063C2.46303 15.9208 3.52327 15.4886 4.60175 15.1057L4.26721 14.1633Z" fill="#3035C3"/>
</svg>
