<svg width="375" height="64" viewBox="0 0 375 64" fill="none" xmlns="http://www.w3.org/2000/svg">
<path d="M375 43.2531L361.653 32.2138L358.766 49.292L375 43.2531ZM61.8087 1.78771C61.8634 0.961082 61.2375 0.246696 60.4109 0.192076C59.5843 0.137456 58.8699 0.763293 58.8153 1.58992L60.312 1.68881L61.8087 1.78771ZM128.194 57.1113L127.912 58.5847L128.194 57.1113ZM58.5244 5.21237C58.4461 6.03709 59.0512 6.76913 59.8759 6.84743C60.7006 6.92573 61.4327 6.32063 61.511 5.49591L60.0177 5.35414L58.5244 5.21237ZM60.638 12.4828C60.7663 11.6643 60.2068 10.8969 59.3883 10.7686C58.5699 10.6403 57.8024 11.1998 57.6742 12.0182L59.1561 12.2505L60.638 12.4828ZM56.3295 18.9615C56.1413 19.7683 56.6427 20.5749 57.4495 20.7631C58.2563 20.9513 59.0628 20.4498 59.251 19.643L57.7903 19.3023L56.3295 18.9615ZM57.316 26.6067C57.5729 25.8191 57.1427 24.9723 56.3551 24.7155C55.5675 24.4586 54.7208 24.8888 54.4639 25.6764L55.8899 26.1415L57.316 26.6067ZM51.9987 32.1363C51.6633 32.8939 52.0056 33.7798 52.7631 34.1151C53.5207 34.4505 54.4066 34.1082 54.7419 33.3507L53.3703 32.7435L51.9987 32.1363ZM51.4287 39.7933C51.852 39.0812 51.618 38.1608 50.9059 37.7374C50.1938 37.3141 49.2733 37.5482 48.85 38.2603L50.1393 39.0268L51.4287 39.7933ZM44.951 43.9069C44.4329 44.5533 44.5369 45.4974 45.1833 46.0155C45.8297 46.5336 46.7738 46.4296 47.2919 45.7831L46.1214 44.845L44.951 43.9069ZM42.2971 51.1106C42.9104 50.5536 42.956 49.605 42.399 48.9917C41.8421 48.3784 40.8934 48.3328 40.2802 48.8897L41.2886 50.0002L42.2971 51.1106ZM34.8852 53.0111C34.1857 53.4548 33.9784 54.3817 34.4221 55.0812C34.8659 55.7808 35.7928 55.9881 36.4923 55.5443L35.6888 54.2777L34.8852 53.0111ZM29.9447 58.9098C30.7131 58.6001 31.0849 57.7261 30.7752 56.9578C30.4654 56.1894 29.5915 55.8176 28.8231 56.1273L29.3839 57.5185L29.9447 58.9098ZM22.3159 58.0673C21.5031 58.2279 20.9744 59.0168 21.135 59.8296C21.2955 60.6423 22.0845 61.171 22.8972 61.0105L22.6065 59.5389L22.3159 58.0673ZM15.5312 61.7145C16.3596 61.7216 17.0369 61.0559 17.0441 60.2275C17.0512 59.3991 16.3854 58.7217 15.5571 58.7146L15.5441 60.2146L15.5312 61.7145ZM8.93314 57.8417C8.13575 57.6171 7.30724 58.0814 7.0826 58.8788C6.85797 59.6762 7.32229 60.5047 8.11968 60.7293L8.52641 59.2855L8.93314 57.8417ZM1.30968 56.4394C1.73077 57.1528 2.65048 57.3898 3.3639 56.9687C4.07732 56.5476 4.3143 55.6279 3.8932 54.9144L2.60144 55.6769L1.30968 56.4394ZM6.24063 51.4898C6.97064 51.0981 7.24495 50.1889 6.85332 49.4588C6.46169 48.7288 5.55242 48.4545 4.82241 48.8462L5.53152 50.168L6.24063 51.4898ZM11.8002 46.4208C10.9929 46.6066 10.4891 47.4117 10.6749 48.219C10.8607 49.0263 11.6659 49.5301 12.4732 49.3443L12.1367 47.8825L11.8002 46.4208ZM19.3972 48.1899C20.22 48.0938 20.8091 47.3489 20.713 46.526C20.6169 45.7032 19.872 45.1141 19.0492 45.2102L19.2232 46.7L19.3972 48.1899ZM26.1739 44.6222C25.3466 44.666 24.7114 45.3721 24.7551 46.1993C24.7989 47.0266 25.505 47.6618 26.3322 47.618L26.253 46.1201L26.1739 44.6222ZM33.2272 47.4112C34.0556 47.4034 34.7208 46.7255 34.713 45.8972C34.7052 45.0688 34.0273 44.4036 33.1989 44.4114L33.213 45.9113L33.2272 47.4112ZM40.2694 44.4661C39.4412 44.4466 38.754 45.1022 38.7345 45.9304C38.715 46.7586 39.3706 47.4458 40.1988 47.4653L40.2341 45.9657L40.2694 44.4661ZM47.3698 47.7338C48.1971 47.7755 48.9017 47.1386 48.9434 46.3112C48.9851 45.4839 48.3482 44.7793 47.5208 44.7376L47.4453 46.2357L47.3698 47.7338ZM54.4975 45.1659C53.6712 45.1066 52.9533 45.7284 52.894 46.5547C52.8347 47.381 53.4565 48.0989 54.2828 48.1582L54.3902 46.6621L54.4975 45.1659ZM61.3633 48.7337C62.1883 48.8082 62.9176 48.1997 62.9921 47.3746C63.0666 46.5496 62.4582 45.8203 61.6331 45.7458L61.4982 47.2397L61.3633 48.7337ZM68.6547 46.4367C67.8309 46.3493 67.0922 46.9462 67.0048 47.77C66.9173 48.5938 67.5143 49.3325 68.3381 49.4199L68.4964 47.9283L68.6547 46.4367ZM75.422 50.2228C76.2445 50.3217 76.9914 49.7351 77.0904 48.9126C77.1893 48.0901 76.6027 47.3432 75.7802 47.2443L75.6011 48.7335L75.422 50.2228ZM82.7167 48.1217C81.8954 48.0129 81.1414 48.5904 81.0326 49.4117C80.9238 50.2329 81.5013 50.9869 82.3225 51.0957L82.5196 49.6087L82.7167 48.1217ZM89.5462 52.0955C90.3662 52.2137 91.1267 51.6448 91.2448 50.8248C91.3629 50.0048 90.794 49.2444 89.9741 49.1262L89.7601 50.6109L89.5462 52.0955ZM96.7566 50.1373C95.9378 50.0113 95.1719 50.5729 95.0458 51.3917C94.9198 52.2104 95.4814 52.9764 96.3002 53.1024L96.5284 51.6198L96.7566 50.1373ZM103.361 54.2228C104.178 54.3563 104.95 53.8018 105.083 52.9842C105.217 52.1666 104.662 51.3955 103.844 51.262L103.603 52.7424L103.361 54.2228ZM110.88 52.4418C110.064 52.3014 109.288 52.8495 109.148 53.6659C109.008 54.4824 109.556 55.258 110.372 55.3984L110.626 53.9201L110.88 52.4418ZM117.196 56.5984C118.011 56.7449 118.791 56.2027 118.938 55.3873C119.084 54.5719 118.542 53.7922 117.727 53.6457L117.461 55.122L117.196 56.5984ZM124.828 54.9485C124.013 54.7961 123.23 55.3326 123.077 56.1469C122.925 56.9612 123.461 57.7449 124.276 57.8973L124.552 56.4229L124.828 54.9485ZM131.418 59.2328C132.233 59.3786 133.012 58.8358 133.158 58.0203C133.304 57.2048 132.761 56.4255 131.946 56.2796L131.682 57.7562L131.418 59.2328ZM138.701 57.4053C137.882 57.2792 137.116 57.8406 136.99 58.6594C136.864 59.4782 137.426 60.2442 138.244 60.3703L138.473 58.8878L138.701 57.4053ZM145.195 61.3475C146.017 61.4517 146.767 60.8699 146.872 60.0481C146.976 59.2262 146.394 58.4755 145.572 58.3713L145.383 59.8594L145.195 61.3475ZM152.447 59.1421C151.623 59.0621 150.89 59.6656 150.81 60.4902C150.729 61.3147 151.333 62.0481 152.158 62.1281L152.303 60.6351L152.447 59.1421ZM159.119 62.6938C159.946 62.7476 160.66 62.121 160.713 61.2943C160.767 60.4677 160.14 59.7539 159.314 59.7001L159.216 61.197L159.119 62.6938ZM166.182 60.0298C165.353 60.0045 164.662 60.6553 164.636 61.4833C164.611 62.3114 165.262 63.0031 166.09 63.0284L166.136 61.5291L166.182 60.0298ZM173.073 63.1145C173.901 63.1093 174.569 62.4335 174.563 61.6051C174.558 60.7767 173.882 60.1093 173.054 60.1145L173.063 61.6145L173.073 63.1145ZM179.928 59.9385C179.1 59.9759 178.46 60.6772 178.497 61.5048C178.535 62.3323 179.236 62.9729 180.063 62.9355L179.996 61.437L179.928 59.9385ZM187.05 62.479C187.875 62.4083 188.487 61.6819 188.417 60.8565C188.346 60.0311 187.619 59.4193 186.794 59.49L186.922 60.9845L187.05 62.479ZM193.641 58.7639C192.819 58.8678 192.237 59.6184 192.341 60.4403C192.445 61.2621 193.195 61.8441 194.017 61.7402L193.829 60.2521L193.641 58.7639ZM200.948 60.7245C201.766 60.5886 202.318 59.8159 202.182 58.9987C202.046 58.1815 201.273 57.6293 200.456 57.7652L200.702 59.2449L200.948 60.7245ZM207.232 56.5102C206.421 56.6754 205.896 57.4674 206.062 58.2792C206.227 59.091 207.019 59.6152 207.83 59.45L207.531 57.9801L207.232 56.5102ZM214.656 57.9474C215.462 57.7572 215.962 56.9494 215.772 56.1431C215.581 55.3368 214.774 54.8373 213.967 55.0275L214.312 56.4874L214.656 57.9474ZM220.666 53.3569C219.865 53.5666 219.385 54.3863 219.595 55.1878C219.804 55.9892 220.624 56.4689 221.425 56.2593L221.046 54.8081L220.666 53.3569ZM228.147 54.437C228.945 54.2144 229.412 53.387 229.189 52.589C228.966 51.7911 228.139 51.3248 227.341 51.5475L227.744 52.9923L228.147 54.437ZM234.008 49.6542C233.212 49.883 232.752 50.7138 232.98 51.5101C233.209 52.3063 234.04 52.7663 234.836 52.5376L234.422 51.0959L234.008 49.6542ZM241.51 50.6192C242.307 50.3914 242.768 49.561 242.54 48.7645C242.312 47.968 241.482 47.5071 240.685 47.7349L241.098 49.177L241.51 50.6192ZM247.379 45.8492C246.581 46.0696 246.112 46.8957 246.332 47.6942C246.553 48.4928 247.379 48.9615 248.177 48.7411L247.778 47.2952L247.379 45.8492ZM254.855 46.9534C255.657 46.7462 256.139 45.928 255.932 45.1259C255.725 44.3238 254.906 43.8415 254.104 44.0488L254.48 45.5011L254.855 46.9534ZM260.872 42.3774C260.066 42.5667 259.565 43.374 259.755 44.1805C259.944 44.987 260.751 45.4873 261.558 45.298L261.215 43.8377L260.872 42.3774ZM268.294 43.8085C269.105 43.6406 269.627 42.8469 269.459 42.0356C269.291 41.2244 268.497 40.7029 267.686 40.8707L267.99 42.3396L268.294 43.8085ZM274.545 39.5548C273.729 39.6988 273.184 40.4768 273.328 41.2927C273.472 42.1085 274.25 42.6531 275.066 42.5091L274.805 41.0319L274.545 39.5548ZM281.874 41.4148C282.694 41.2961 283.262 40.5352 283.144 39.7153C283.025 38.8954 282.264 38.3271 281.444 38.4458L281.659 39.9303L281.874 41.4148ZM288.38 37.5519C287.557 37.6449 286.965 38.3876 287.058 39.2108C287.151 40.034 287.894 40.6259 288.717 40.5329L288.548 39.0424L288.38 37.5519ZM295.593 39.8641C296.419 39.7966 297.034 39.0726 296.966 38.2469C296.899 37.4212 296.175 36.8066 295.349 36.874L295.471 38.369L295.593 39.8641ZM302.34 36.4091C301.513 36.4517 300.877 37.1569 300.919 37.9843C300.962 38.8116 301.667 39.4477 302.494 39.4051L302.417 37.9071L302.34 36.4091ZM309.356 39.1501C310.185 39.1311 310.841 38.4442 310.821 37.616C310.802 36.7878 310.116 36.1319 309.287 36.1509L309.322 37.6505L309.356 39.1501ZM316.248 36.0854C315.419 36.0821 314.745 36.7511 314.742 37.5795C314.739 38.4079 315.408 39.0821 316.236 39.0854L316.242 37.5854L316.248 36.0854ZM323.146 39.2012C323.974 39.2255 324.665 38.5739 324.689 37.7458C324.714 36.9177 324.062 36.2268 323.234 36.2025L323.19 37.7018L323.146 39.2012ZM330.264 36.4937C329.437 36.4496 328.731 37.0845 328.687 37.9118C328.643 38.739 329.277 39.4454 330.105 39.4894L330.184 37.9915L330.264 36.4937ZM336.941 39.9292C337.767 39.9913 338.487 39.3719 338.549 38.5458C338.611 37.7197 337.992 36.9997 337.166 36.9376L337.053 38.4334L336.941 39.9292ZM344.105 37.5316C343.281 37.4526 342.548 38.0571 342.469 38.8817C342.39 39.7064 342.994 40.4389 343.819 40.5179L343.962 39.0247L344.105 37.5316ZM350.77 41.2519C351.593 41.3467 352.337 40.7564 352.432 39.9334C352.527 39.1104 351.937 38.3664 351.114 38.2716L350.942 39.7618L350.77 41.2519ZM357.946 39.1197C357.124 39.0106 356.37 39.5878 356.261 40.4091C356.152 41.2303 356.729 41.9844 357.55 42.0936L357.748 40.6066L357.946 39.1197ZM364.439 43.0675C365.259 43.1901 366.022 42.6254 366.145 41.8061C366.267 40.9868 365.703 40.2232 364.883 40.1005L364.661 41.584L364.439 43.0675ZM371.74 41.1807C370.922 41.0456 370.15 41.5987 370.015 42.4161C369.88 43.2334 370.433 44.0055 371.251 44.1405L371.495 42.6606L371.74 41.1807ZM60.312 1.68881L58.8153 1.58992C58.7338 2.82227 58.6367 4.0296 58.5244 5.21237L60.0177 5.35414L61.511 5.49591C61.626 4.28403 61.7255 3.04811 61.8087 1.78771L60.312 1.68881ZM59.1561 12.2505L57.6742 12.0182C57.293 14.4498 56.8425 16.7626 56.3295 18.9615L57.7903 19.3023L59.251 19.643C59.7814 17.3694 60.2459 14.9842 60.638 12.4828L59.1561 12.2505ZM55.8899 26.1415L54.4639 25.6764C53.7138 27.9761 52.8883 30.1267 51.9987 32.1363L53.3703 32.7435L54.7419 33.3507C55.6742 31.2447 56.5357 28.9992 57.316 26.6067L55.8899 26.1415ZM50.1393 39.0268L48.85 38.2603C47.62 40.3292 46.3138 42.2065 44.951 43.9069L46.1214 44.845L47.2919 45.7831C48.7439 43.9715 50.1292 41.9792 51.4287 39.7933L50.1393 39.0268ZM41.2886 50.0002L40.2802 48.8897C38.5248 50.484 36.7158 51.8498 34.8852 53.0111L35.6888 54.2777L36.4923 55.5443C38.4668 54.2917 40.4131 52.8216 42.2971 51.1106L41.2886 50.0002ZM29.3839 57.5185L28.8231 56.1273C26.6182 57.0161 24.4307 57.6496 22.3159 58.0673L22.6065 59.5389L22.8972 61.0105C25.1916 60.5572 27.5603 59.8709 29.9447 58.9098L29.3839 57.5185ZM15.5441 60.2146L15.5571 58.7146C13.0455 58.693 10.7947 58.3661 8.93314 57.8417L8.52641 59.2855L8.11968 60.7293C10.265 61.3337 12.7832 61.6908 15.5312 61.7145L15.5441 60.2146ZM2.60144 55.6769L3.8932 54.9144C3.60739 54.4302 3.59126 54.02 3.81083 53.5695C4.07444 53.0286 4.75946 52.2844 6.24063 51.4898L5.53152 50.168L4.82241 48.8462C3.06701 49.7879 1.76659 50.9164 1.1141 52.2551C0.417555 53.6842 0.554668 55.1602 1.30968 56.4394L2.60144 55.6769ZM12.1367 47.8825L12.4732 49.3443C14.424 48.8952 16.7209 48.5025 19.3972 48.1899L19.2232 46.7L19.0492 45.2102C16.2845 45.533 13.8769 45.9427 11.8002 46.4208L12.1367 47.8825ZM26.253 46.1201L26.3322 47.618C28.4608 47.5055 30.7563 47.4346 33.2272 47.4112L33.213 45.9113L33.1989 44.4114C30.6884 44.4351 28.3493 44.5072 26.1739 44.6222L26.253 46.1201ZM40.2341 45.9657L40.1988 47.4653C42.4672 47.5187 44.856 47.6071 47.3698 47.7338L47.4453 46.2357L47.5208 44.7376C44.9818 44.6096 42.5661 44.5201 40.2694 44.4661L40.2341 45.9657ZM54.3902 46.6621L54.2828 48.1582C56.5536 48.3212 58.9129 48.5124 61.3633 48.7337L61.4982 47.2397L61.6331 45.7458C59.1651 45.5229 56.7875 45.3302 54.4975 45.1659L54.3902 46.6621ZM68.4964 47.9283L68.3381 49.4199C70.6276 49.6629 72.9883 49.9301 75.422 50.2228L75.6011 48.7335L75.7802 47.2443C73.3331 46.95 70.9585 46.6812 68.6547 46.4367L68.4964 47.9283ZM82.5196 49.6087L82.3225 51.0957C84.668 51.4066 87.0754 51.7395 89.5462 52.0955L89.7601 50.6109L89.9741 49.1262C87.4924 48.7686 85.0737 48.4341 82.7167 48.1217L82.5196 49.6087ZM96.5284 51.6198L96.3002 53.1024C98.6024 53.4567 100.956 53.83 103.361 54.2228L103.603 52.7424L103.844 51.262C101.43 50.8677 99.068 50.493 96.7566 50.1373L96.5284 51.6198ZM110.626 53.9201L110.372 55.3984C112.604 55.7822 114.879 56.182 117.196 56.5984L117.461 55.122L117.727 53.6457C115.402 53.228 113.12 52.8269 110.88 52.4418L110.626 53.9201ZM124.552 56.4229L124.276 57.8973C125.477 58.1222 126.689 58.3513 127.912 58.5847L128.194 57.1113L128.475 55.6379C127.248 55.4038 126.032 55.174 124.828 54.9485L124.552 56.4229ZM128.194 57.1113L127.912 58.5847C129.093 58.81 130.261 59.0259 131.418 59.2328L131.682 57.7562L131.946 56.2796C130.801 56.0749 129.644 55.861 128.475 55.6379L128.194 57.1113ZM138.473 58.8878L138.244 60.3703C140.612 60.7351 142.928 61.0602 145.195 61.3475L145.383 59.8594L145.572 58.3713C143.332 58.0875 141.043 57.7661 138.701 57.4053L138.473 58.8878ZM152.303 60.6351L152.158 62.1281C154.532 62.3586 156.851 62.5463 159.119 62.6938L159.216 61.197L159.314 59.7001C157.078 59.5547 154.79 59.3696 152.447 59.1421L152.303 60.6351ZM166.136 61.5291L166.09 63.0284C168.473 63.1013 170.799 63.1288 173.073 63.1145L173.063 61.6145L173.054 60.1145C170.817 60.1286 168.528 60.1016 166.182 60.0298L166.136 61.5291ZM179.996 61.437L180.063 62.9355C182.446 62.8277 184.773 62.674 187.05 62.479L186.922 60.9845L186.794 59.49C184.557 59.6815 182.27 59.8326 179.928 59.9385L179.996 61.437ZM193.829 60.2521L194.017 61.7402C196.375 61.4421 198.682 61.1015 200.948 60.7245L200.702 59.2449L200.456 57.7652C198.227 58.1361 195.958 58.4709 193.641 58.7639L193.829 60.2521ZM207.531 57.9801L207.83 59.45C210.139 58.9802 212.411 58.477 214.656 57.9474L214.312 56.4874L213.967 55.0275C211.749 55.5508 209.507 56.0473 207.232 56.5102L207.531 57.9801ZM221.046 54.8081L221.425 56.2593C223.68 55.6695 225.917 55.0595 228.147 54.437L227.744 52.9923L227.341 51.5475C225.122 52.1668 222.901 52.7723 220.666 53.3569L221.046 54.8081ZM234.422 51.0959L234.836 52.5376C237.055 51.9002 239.272 51.2595 241.51 50.6192L241.098 49.177L240.685 47.7349C238.446 48.3755 236.22 49.0188 234.008 49.6542L234.422 51.0959ZM247.778 47.2952L248.177 48.7411C250.376 48.1344 252.598 47.5364 254.855 46.9534L254.48 45.5011L254.104 44.0488C251.829 44.6367 249.59 45.2391 247.379 45.8492L247.778 47.2952ZM261.215 43.8377L261.558 45.298C263.761 44.7807 266.004 44.2824 268.294 43.8085L267.99 42.3396L267.686 40.8707C265.368 41.3505 263.099 41.8546 260.872 42.3774L261.215 43.8377ZM274.805 41.0319L275.066 42.5091C277.285 42.1173 279.552 41.7511 281.874 41.4148L281.659 39.9303L281.444 38.4458C279.091 38.7867 276.793 39.1579 274.545 39.5548L274.805 41.0319ZM288.548 39.0424L288.717 40.5329C290.955 40.28 293.246 40.0559 295.593 39.8641L295.471 38.369L295.349 36.874C292.97 37.0684 290.649 37.2955 288.38 37.5519L288.548 39.0424ZM302.417 37.9071L302.494 39.4051C304.729 39.2899 307.015 39.2041 309.356 39.1501L309.322 37.6505L309.287 36.1509C306.918 36.2055 304.604 36.2924 302.34 36.4091L302.417 37.9071ZM316.242 37.5854L316.236 39.0854C318.489 39.0942 320.791 39.1322 323.146 39.2012L323.19 37.7018L323.234 36.2025C320.854 36.1327 318.526 36.0943 316.248 36.0854L316.242 37.5854ZM330.184 37.9915L330.105 39.4894C332.337 39.6082 334.615 39.7543 336.941 39.9292L337.053 38.4334L337.166 36.9376C334.818 36.7612 332.518 36.6137 330.264 36.4937L330.184 37.9915ZM343.962 39.0247L343.819 40.5179C346.091 40.7355 348.408 40.9798 350.77 41.2519L350.942 39.7618L351.114 38.2716C348.732 37.9973 346.397 37.751 344.105 37.5316L343.962 39.0247ZM357.748 40.6066L357.55 42.0936C359.806 42.3933 362.102 42.7176 364.439 43.0675L364.661 41.584L364.883 40.1005C362.53 39.7482 360.218 39.4216 357.946 39.1197L357.748 40.6066Z" fill="white"/>
</svg>
