<svg width="93" height="19" viewBox="0 0 93 19" fill="none" xmlns="http://www.w3.org/2000/svg">
<path d="M87.5 -5.14984e-05L81.2595 9.71537L92.7935 10.2621L87.5 -5.14984e-05ZM0.576927 14.594C0.0765073 14.8277 -0.139755 15.4228 0.0939024 15.9232C0.32756 16.4236 0.922645 16.6399 1.42307 16.4062L1 15.5001L0.576927 14.594ZM86.3375 3.4341C86.2821 3.98359 86.6826 4.47399 87.2321 4.52943C87.7816 4.58486 88.272 4.18435 88.3274 3.63485L87.3325 3.53448L86.3375 3.4341ZM86.4407 10.7906C86.6846 10.2951 86.4805 9.69567 85.985 9.45182C85.4895 9.20797 84.8901 9.412 84.6462 9.90753L85.5435 10.3491L86.4407 10.7906ZM80.3409 14.5922C79.8639 14.8706 79.7028 15.4829 79.9811 15.9599C80.2594 16.437 80.8718 16.598 81.3488 16.3197L80.8449 15.456L80.3409 14.5922ZM74.2536 18.5031C74.8021 18.4384 75.1943 17.9414 75.1296 17.3929C75.0649 16.8444 74.5678 16.4522 74.0193 16.5169L74.1365 17.51L74.2536 18.5031ZM67.1646 16.6122C66.6135 16.5767 66.1379 16.9947 66.1025 17.5459C66.067 18.097 66.485 18.5726 67.0362 18.608L67.1004 17.6101L67.1646 16.6122ZM59.9234 17.8215C60.4699 17.9014 60.9776 17.5231 61.0575 16.9766C61.1373 16.4302 60.7591 15.9224 60.2126 15.8425L60.068 16.832L59.9234 17.8215ZM53.2818 14.6959C52.7381 14.5988 52.2186 14.9608 52.1215 15.5045C52.0244 16.0482 52.3864 16.5676 52.9301 16.6648L53.1059 15.6803L53.2818 14.6959ZM45.9801 15.4017C46.5236 15.4998 47.0437 15.1388 47.1419 14.5953C47.24 14.0518 46.8789 13.5316 46.3354 13.4335L46.1578 14.4176L45.9801 15.4017ZM39.3538 12.2358C38.8084 12.1491 38.2959 12.521 38.2093 13.0665C38.1226 13.6119 38.4945 14.1244 39.0399 14.211L39.1969 13.2234L39.3538 12.2358ZM32.0885 13.2446C32.6371 13.308 33.1332 12.9146 33.1966 12.366C33.2599 11.8173 32.8665 11.3212 32.3179 11.2579L32.2032 12.2512L32.0885 13.2446ZM25.2169 10.6602C24.6652 10.6333 24.1962 11.0586 24.1693 11.6103C24.1424 12.1619 24.5678 12.6309 25.1194 12.6578L25.1681 11.659L25.2169 10.6602ZM18.1547 12.6293C18.7064 12.604 19.1331 12.1362 19.1078 11.5845C19.0825 11.0328 18.6148 10.6061 18.063 10.6314L18.1089 11.6304L18.1547 12.6293ZM10.919 11.4004C10.3751 11.4964 10.012 12.0151 10.108 12.559C10.204 13.1028 10.7227 13.4659 11.2666 13.37L11.0928 12.3852L10.919 11.4004ZM4.60175 15.1056C5.12222 14.9208 5.39435 14.3491 5.20959 13.8287C5.02483 13.3082 4.45313 13.0361 3.93267 13.2208L4.26721 14.1632L4.60175 15.1056ZM85.5435 10.3491L84.6462 9.90753C83.6021 12.0294 82.1469 13.5386 80.3409 14.5922L80.8449 15.456L81.3488 16.3197C83.4962 15.0668 85.224 13.263 86.4407 10.7906L85.5435 10.3491ZM74.1365 17.51L74.0193 16.5169C71.9452 16.7615 69.6504 16.7722 67.1646 16.6122L67.1004 17.6101L67.0362 18.608C69.5995 18.773 72.0226 18.7662 74.2536 18.5031L74.1365 17.51ZM60.068 16.832L60.2126 15.8425C57.9843 15.5169 55.6683 15.1222 53.2818 14.6959L53.1059 15.6803L52.9301 16.6648C55.3248 17.0925 57.6645 17.4914 59.9234 17.8215L60.068 16.832ZM46.1578 14.4176L46.3354 13.4335C44.0429 13.0196 41.7092 12.6101 39.3538 12.2358L39.1969 13.2234L39.0399 14.211C41.3752 14.5821 43.6932 14.9888 45.9801 15.4017L46.1578 14.4176ZM32.2032 12.2512L32.3179 11.2579C29.953 10.9847 27.5802 10.7754 25.2169 10.6602L25.1681 11.659L25.1194 12.6578C27.4308 12.7705 29.7588 12.9756 32.0885 13.2446L32.2032 12.2512ZM18.1089 11.6304L18.063 10.6314C15.6498 10.7421 13.262 10.9869 10.919 11.4004L11.0928 12.3852L11.2666 13.37C13.514 12.9733 15.8155 12.7366 18.1547 12.6293L18.1089 11.6304ZM4.26721 14.1632L3.93267 13.2208C2.79637 13.6242 1.6769 14.0804 0.576927 14.594L1 15.5001L1.42307 16.4062C2.46303 15.9206 3.52327 15.4885 4.60175 15.1056L4.26721 14.1632Z" fill="#3035C3"/>
</svg>
