<svg width="122" height="27" viewBox="0 0 122 27" fill="none" xmlns="http://www.w3.org/2000/svg">
<path d="M116 2.12888L109.773 11.8531L121.308 12.3835L116 2.12888ZM9.51905 1.51344C9.17915 1.07814 8.55072 1.0008 8.11542 1.34069C7.68012 1.68059 7.60278 2.30901 7.94268 2.74432L8.73086 2.12888L9.51905 1.51344ZM52.5001 2.12899L52.5909 3.12486L52.5001 2.12899ZM114.834 5.74535C114.777 6.29471 115.177 6.78606 115.726 6.8428C116.275 6.89954 116.767 6.5002 116.824 5.95083L115.829 5.84809L114.834 5.74535ZM113.844 13.2924C114.266 12.9362 114.319 12.3053 113.963 11.8832C113.607 11.4611 112.976 11.4077 112.554 11.7639L113.199 12.5281L113.844 13.2924ZM106.359 12.3561C105.82 12.2371 105.286 12.5778 105.167 13.1171C105.048 13.6564 105.389 14.1901 105.928 14.3091L106.144 13.3326L106.359 12.3561ZM98.763 12.0646C99.2818 12.2538 99.8558 11.9867 100.045 11.4678C100.234 10.949 99.9672 10.3749 99.4484 10.1857L99.1057 11.1251L98.763 12.0646ZM92.5372 7.62292C92.0183 7.43371 91.4443 7.70094 91.2551 8.2198C91.0659 8.73866 91.3331 9.31267 91.852 9.50188L92.1946 8.5624L92.5372 7.62292ZM84.9125 7.1251C85.4392 7.29107 86.0008 6.9986 86.1668 6.47184C86.3327 5.94509 86.0403 5.38352 85.5135 5.21755L85.213 6.17133L84.9125 7.1251ZM78.3554 3.21531C77.8186 3.08554 77.2782 3.41552 77.1485 3.95235C77.0187 4.48917 77.3487 5.02955 77.8855 5.15932L78.1205 4.18731L78.3554 3.21531ZM70.7347 3.73648C71.2805 3.82091 71.7914 3.44691 71.8758 2.90112C71.9602 2.35533 71.5862 1.84442 71.0404 1.75999L70.8876 2.74823L70.7347 3.73648ZM63.612 0.961297C63.0607 0.928508 62.5872 1.34885 62.5544 1.90016C62.5216 2.45147 62.9419 2.92498 63.4932 2.95777L63.5526 1.95953L63.612 0.961297ZM56.22 2.88633C56.7718 2.86406 57.2011 2.39865 57.1788 1.84682C57.1566 1.29498 56.6912 0.865684 56.1393 0.887956L56.1797 1.88714L56.22 2.88633ZM48.7612 1.48518C48.2117 1.54122 47.8117 2.03206 47.8678 2.58149C47.9238 3.13093 48.4147 3.5309 48.9641 3.47485L48.8626 2.48002L48.7612 1.48518ZM42.065 4.25885C42.613 4.18973 43.0011 3.6895 42.932 3.14156C42.8629 2.59361 42.3627 2.20546 41.8147 2.27458L41.9399 3.26672L42.065 4.25885ZM34.8734 3.25189C34.3278 3.33742 33.9548 3.84907 34.0403 4.3947C34.1259 4.94032 34.6375 5.31329 35.1831 5.22776L35.0283 4.23983L34.8734 3.25189ZM28.278 6.44466C28.8198 6.33742 29.172 5.81129 29.0648 5.26952C28.9575 4.72775 28.4314 4.37548 27.8896 4.48272L28.0838 5.46369L28.278 6.44466ZM20.9564 6.04597C20.4215 6.18352 20.0994 6.72863 20.237 7.26351C20.3745 7.79839 20.9196 8.1205 21.4545 7.98295L21.2055 7.01446L20.9564 6.04597ZM14.7405 10.0043C15.2609 9.81952 15.5331 9.24782 15.3483 8.72735C15.1635 8.20689 14.5918 7.93475 14.0714 8.11951L14.4059 9.06189L14.7405 10.0043ZM7.51312 11.0119C7.03154 11.2823 6.86032 11.8919 7.13069 12.3735C7.40106 12.855 8.01063 13.0263 8.49221 12.7559L8.00267 11.8839L7.51312 11.0119ZM3.61032 16.921C3.89487 16.4477 3.74181 15.8333 3.26847 15.5488C2.79513 15.2642 2.18074 15.4173 1.8962 15.8906L2.75326 16.4058L3.61032 16.921ZM2.93978 23.514C3.32771 23.9071 3.96086 23.9113 4.35397 23.5234C4.74707 23.1354 4.75128 22.5023 4.36336 22.1092L3.65157 22.8116L2.93978 23.514ZM10.0554 24.8296C9.50938 24.7466 8.99948 25.122 8.91651 25.668C8.83353 26.214 9.2089 26.7239 9.75492 26.8069L9.90516 25.8182L10.0554 24.8296ZM17.1842 24.7232C17.5489 24.3085 17.5084 23.6767 17.0937 23.3119C16.679 22.9472 16.0472 22.9877 15.6824 23.4024L16.4333 24.0628L17.1842 24.7232ZM16.3985 17.6342C16.5281 18.171 17.0684 18.5011 17.6052 18.3715C18.1421 18.2419 18.4722 17.7016 18.3426 17.1647L17.3705 17.3994L16.3985 17.6342ZM15.5525 10.4261C15.2853 9.94277 14.6769 9.76757 14.1935 10.0348C13.7102 10.302 13.535 10.9104 13.8022 11.3938L14.6774 10.9099L15.5525 10.4261ZM10.0889 5.60385C10.4112 6.05234 11.036 6.15462 11.4845 5.83232C11.933 5.51001 12.0353 4.88516 11.713 4.43668L10.9009 5.02027L10.0889 5.60385ZM113.199 12.5281L112.554 11.7639C111.285 12.8348 109.342 13.0144 106.359 12.3561L106.144 13.3326L105.928 14.3091C109.028 14.993 111.814 15.0054 113.844 13.2924L113.199 12.5281ZM99.1057 11.1251L99.4484 10.1857C98.3945 9.8012 97.2929 9.38893 96.1397 8.95779C94.9878 8.52715 93.7857 8.07822 92.5372 7.62292L92.1946 8.5624L91.852 9.50188C93.092 9.95407 94.287 10.4004 95.4393 10.8312C96.5903 11.2614 97.7 11.6768 98.763 12.0646L99.1057 11.1251ZM85.213 6.17133L85.5135 5.21755C83.2451 4.50282 80.8578 3.82021 78.3554 3.21531L78.1205 4.18731L77.8855 5.15932C80.3364 5.75177 82.6794 6.42151 84.9125 7.1251L85.213 6.17133ZM70.8876 2.74823L71.0404 1.75999C68.6502 1.39021 66.1733 1.11363 63.612 0.961297L63.5526 1.95953L63.4932 2.95777C65.9875 3.10612 68.402 3.37559 70.7347 3.73648L70.8876 2.74823ZM56.1797 1.88714L56.1393 0.887956C54.9125 0.937472 53.6691 1.01825 52.4093 1.13312L52.5001 2.12899L52.5909 3.12486C53.8166 3.0131 55.0263 2.9345 56.22 2.88633L56.1797 1.88714ZM52.5001 2.12899L52.4093 1.13312C51.1654 1.24655 49.9495 1.36396 48.7612 1.48518L48.8626 2.48002L48.9641 3.47485C50.1452 3.35438 51.3539 3.23765 52.5909 3.12486L52.5001 2.12899ZM41.9399 3.26672L41.8147 2.27458C39.3672 2.58334 37.0556 2.90981 34.8734 3.25189L35.0283 4.23983L35.1831 5.22776C37.3442 4.88899 39.636 4.56528 42.065 4.25885L41.9399 3.26672ZM28.0838 5.46369L27.8896 4.48272C25.3681 4.98182 23.062 5.50451 20.9564 6.04597L21.2055 7.01446L21.4545 7.98295C23.5199 7.45182 25.7892 6.93727 28.278 6.44466L28.0838 5.46369ZM14.4059 9.06189L14.0714 8.11951C11.4438 9.0523 9.27613 10.0222 7.51312 11.0119L8.00267 11.8839L8.49221 12.7559C10.1348 11.8337 12.1943 10.9081 14.7405 10.0043L14.4059 9.06189ZM2.75326 16.4058L1.8962 15.8906C1.05171 17.2955 0.792981 18.7141 1.03708 20.0591C1.27806 21.387 1.99215 22.5537 2.93978 23.514L3.65157 22.8116L4.36336 22.1092C3.62396 21.3599 3.15719 20.5409 3.00493 19.7019C2.85578 18.8801 2.99141 17.9506 3.61032 16.921L2.75326 16.4058ZM9.90516 25.8182L9.75492 26.8069C12.4458 27.2158 15.3904 26.7627 17.1842 24.7232L16.4333 24.0628L15.6824 23.4024C14.5341 24.708 12.4305 25.1905 10.0554 24.8296L9.90516 25.8182ZM17.3705 17.3994L18.3426 17.1647C17.8764 15.234 16.9746 12.9984 15.5525 10.4261L14.6774 10.9099L13.8022 11.3938C15.1646 13.8581 15.9856 15.9243 16.3985 17.6342L17.3705 17.3994ZM10.9009 5.02027L11.713 4.43668C11.0384 3.49797 10.308 2.52389 9.51905 1.51344L8.73086 2.12888L7.94268 2.74432C8.71646 3.7353 9.4308 4.68813 10.0889 5.60385L10.9009 5.02027Z" fill="#3035C3"/>
</svg>
