<svg width="71" height="37" viewBox="0 0 71 37" fill="none" xmlns="http://www.w3.org/2000/svg">
<path d="M66.4232 36.6524L59.5226 27.3941L70.9908 26.0471L66.4232 36.6524ZM-0.00047694 1.00004C-0.000478303 0.44776 0.447242 4.5973e-05 0.999524 4.49592e-05C1.55181 4.39454e-05 1.99952 0.44776 1.99952 1.00005L0.999524 1.00004L-0.00047694 1.00004ZM65.0552 33.5074C64.9211 32.9717 65.2466 32.4286 65.7823 32.2944C66.3181 32.1603 66.8612 32.4858 66.9953 33.0215L66.0253 33.2645L65.0552 33.5074ZM63.3144 26.7825C63.7139 27.1638 63.7287 27.7968 63.3475 28.1964C62.9662 28.5959 62.3332 28.6107 61.9336 28.2294L62.624 27.506L63.3144 26.7825ZM56.5205 24.7873C56.0152 24.5643 55.7864 23.9739 56.0094 23.4686C56.2324 22.9634 56.8228 22.7346 57.3281 22.9576L56.9243 23.8724L56.5205 24.7873ZM50.7356 20.7399C51.2703 20.878 51.5918 21.4235 51.4537 21.9583C51.3155 22.493 50.77 22.8145 50.2353 22.6763L50.4855 21.7081L50.7356 20.7399ZM43.6617 21.2828C43.1179 21.1868 42.7548 20.6681 42.8508 20.1242C42.9468 19.5804 43.4655 19.2173 44.0094 19.3133L43.8355 20.2981L43.6617 21.2828ZM37.2561 18.256C37.8028 18.3341 38.1827 18.8406 38.1046 19.3873C38.0265 19.934 37.52 20.314 36.9733 20.2359L37.1147 19.2459L37.2561 18.256ZM30.2405 19.2932C29.6938 19.2154 29.3136 18.709 29.3914 18.1623C29.4693 17.6155 29.9756 17.2353 30.5224 17.3132L30.3815 18.3032L30.2405 19.2932ZM23.8318 16.2727C24.3758 16.3678 24.7397 16.886 24.6446 17.43C24.5494 17.974 24.0313 18.3379 23.4872 18.2428L23.6595 17.2577L23.8318 16.2727ZM16.7583 16.831C16.2232 16.6944 15.9001 16.1498 16.0367 15.6147C16.1733 15.0796 16.7179 14.7565 17.253 14.8931L17.0057 15.862L16.7583 16.831ZM10.9586 12.8063C11.4649 13.0267 11.6967 13.616 11.4762 14.1223C11.2558 14.6287 10.6666 14.8605 10.1602 14.64L10.5594 13.7232L10.9586 12.8063ZM4.15116 10.8531C3.7489 10.4747 3.72957 9.84181 4.108 9.43955C4.48643 9.03729 5.1193 9.01797 5.52155 9.39639L4.83636 10.1247L4.15116 10.8531ZM2.37156 4.14109C2.50738 4.67641 2.18352 5.22048 1.64819 5.3563C1.11287 5.49211 0.568796 5.16824 0.432982 4.63292L1.40228 4.387L2.37156 4.14109ZM62.624 27.506L61.9336 28.2294C60.5101 26.8709 58.6822 25.7414 56.5205 24.7873L56.9243 23.8724L57.3281 22.9576C59.6333 23.975 61.6768 25.2198 63.3144 26.7825L62.624 27.506ZM50.4855 21.7081L50.2353 22.6763C48.1613 22.1405 45.9542 21.6874 43.6617 21.2828L43.8355 20.2981L44.0094 19.3133C46.3346 19.7237 48.5958 20.187 50.7356 20.7399L50.4855 21.7081ZM37.1147 19.2459L36.9733 20.2359C34.7021 19.9115 32.5221 19.618 30.2405 19.2932L30.3815 18.3032L30.5224 17.3132C32.7159 17.6254 35.053 17.9413 37.2561 18.256L37.1147 19.2459ZM23.6595 17.2577L23.4872 18.2428C21.1617 17.836 18.8996 17.3776 16.7583 16.831L17.0057 15.862L17.253 14.8931C19.3294 15.4231 21.5383 15.8715 23.8318 16.2727L23.6595 17.2577ZM10.5594 13.7232L10.1602 14.64C7.84824 13.6335 5.79712 12.4015 4.15116 10.8531L4.83636 10.1247L5.52155 9.39639C6.95282 10.7428 8.7887 11.8616 10.9586 12.8063L10.5594 13.7232ZM1.40228 4.387L0.432982 4.63292C0.146759 3.50475 -0.000473835 2.29557 -0.00047694 1.00004L0.999524 1.00004L1.99952 1.00005C1.99953 2.14306 2.12929 3.18613 2.37156 4.14109L1.40228 4.387Z" fill="#3035C3"/>
</svg>
