<svg width="129" height="138" viewBox="0 0 129 138" fill="none" xmlns="http://www.w3.org/2000/svg">
<path d="M117 138L128.557 125.099L111.605 121.541L117 138ZM67.3775 14.5947C67.7059 13.8342 67.3556 12.9514 66.5951 12.623C65.8345 12.2945 64.9518 12.6448 64.6233 13.4053L66.0004 14L67.3775 14.5947ZM88 28L88.6944 26.6704L88 28ZM119.182 134.909C119.348 134.097 118.824 133.305 118.012 133.139C117.201 132.973 116.408 133.496 116.242 134.308L117.712 134.608L119.182 134.909ZM117.537 127.604C117.389 128.419 117.93 129.2 118.745 129.348C119.56 129.495 120.341 128.954 120.489 128.139L119.013 127.872L117.537 127.604ZM121.635 121.342C121.762 120.524 121.202 119.757 120.383 119.63C119.565 119.502 118.798 120.063 118.671 120.881L120.153 121.112L121.635 121.342ZM119.621 114.147C119.518 114.969 120.1 115.72 120.922 115.823C121.743 115.927 122.494 115.345 122.598 114.523L121.109 114.335L119.621 114.147ZM123.356 107.628C123.432 106.803 122.826 106.073 122.001 105.996C121.176 105.919 120.445 106.526 120.369 107.351L121.862 107.49L123.356 107.628ZM120.873 100.56C120.827 101.387 121.461 102.095 122.289 102.14C123.116 102.185 123.823 101.551 123.868 100.724L122.37 100.642L120.873 100.56ZM124.097 93.8152C124.105 92.9868 123.441 92.3083 122.612 92.2997C121.784 92.2911 121.105 92.9557 121.097 93.784L122.597 93.7996L124.097 93.8152ZM120.995 86.9838C121.03 87.8116 121.729 88.4545 122.556 88.42C123.384 88.3854 124.027 87.6864 123.992 86.8587L122.494 86.9213L120.995 86.9838ZM123.496 79.9271C123.411 79.1031 122.674 78.5041 121.849 78.5893C121.025 78.6745 120.427 79.4116 120.512 80.2356L122.004 80.0813L123.496 79.9271ZM119.583 73.5598C119.728 74.3755 120.506 74.9195 121.322 74.775C122.138 74.6304 122.682 73.8519 122.537 73.0362L121.06 73.298L119.583 73.5598ZM121.03 66.2041C120.816 65.4037 119.994 64.9282 119.194 65.142C118.393 65.3558 117.918 66.1779 118.132 66.9783L119.581 66.5912L121.03 66.2041ZM116.087 60.5864C116.379 61.3616 117.245 61.753 118.02 61.4606C118.795 61.1683 119.186 60.303 118.894 59.5278L117.49 60.0571L116.087 60.5864ZM116.052 53.0981C115.675 52.3608 114.771 52.0695 114.033 52.4474C113.296 52.8252 113.005 53.7292 113.383 54.4664L114.718 53.7822L116.052 53.0981ZM109.98 48.7187C110.446 49.404 111.378 49.5823 112.064 49.1168C112.749 48.6514 112.927 47.7185 112.462 47.0332L111.221 47.8759L109.98 48.7187ZM108.142 41.4649C107.594 40.8437 106.646 40.7843 106.025 41.3324C105.404 41.8804 105.344 42.8283 105.892 43.4495L107.017 42.4572L108.142 41.4649ZM101.176 38.724C101.796 39.2742 102.744 39.2182 103.294 38.5988C103.844 37.9795 103.788 37.0314 103.169 36.4812L102.173 37.6026L101.176 38.724ZM97.6638 32.1178C96.9878 31.6389 96.0516 31.7986 95.5726 32.4746C95.0937 33.1505 95.2534 34.0867 95.9294 34.5657L96.7966 33.3418L97.6638 32.1178ZM90.2631 30.9506C90.9811 31.3638 91.8982 31.1167 92.3114 30.3987C92.7246 29.6807 92.4774 28.7636 91.7594 28.3504L91.0113 29.6505L90.2631 30.9506ZM85.4139 24.971C84.677 24.5925 83.7728 24.883 83.3942 25.6199C83.0157 26.3568 83.3062 27.261 84.0431 27.6396L84.7285 26.3053L85.4139 24.971ZM77.7455 24.4602C78.4877 24.8281 79.3877 24.5247 79.7556 23.7825C80.1236 23.0403 79.8202 22.1403 79.078 21.7723L78.4117 23.1162L77.7455 24.4602ZM72.8189 18.7297C72.0709 18.3736 71.1758 18.6913 70.8197 19.4392C70.4636 20.1872 70.7812 21.0823 71.5292 21.4384L72.174 20.0841L72.8189 18.7297ZM65.0906 18.4447C65.8451 18.7868 66.7341 18.4524 67.0761 17.6979C67.4182 16.9434 67.0838 16.0544 66.3293 15.7124L65.71 17.0786L65.0906 18.4447ZM59.9323 12.8922C59.1707 12.5664 58.2891 12.9197 57.9632 13.6813C57.6374 14.443 57.9907 15.3246 58.7523 15.6504L59.3423 14.2713L59.9323 12.8922ZM52.2668 12.971C53.0366 13.2771 53.9088 12.9013 54.215 12.1315C54.5211 11.3617 54.1452 10.4895 53.3754 10.1833L52.8211 11.5772L52.2668 12.971ZM46.7164 7.65191C45.9374 7.37023 45.0775 7.77344 44.7958 8.55251C44.5141 9.33158 44.9173 10.1915 45.6964 10.4732L46.2064 9.06254L46.7164 7.65191ZM39.2111 8.26389C40.0005 8.51512 40.8441 8.07883 41.0953 7.28942C41.3466 6.5 40.9103 5.65639 40.1209 5.40516L39.666 6.83453L39.2111 8.26389ZM33.2875 3.41528C32.486 3.20551 31.6663 3.68515 31.4565 4.48658C31.2468 5.28801 31.7264 6.10774 32.5278 6.31751L32.9076 4.8664L33.2875 3.41528ZM25.7424 4.78965C26.5572 4.9397 27.3393 4.40087 27.4893 3.58614C27.6394 2.77142 27.1005 1.98931 26.2858 1.83927L26.0141 3.31446L25.7424 4.78965ZM19.1923 0.91351C18.3658 0.857212 17.6502 1.48159 17.5939 2.30811C17.5376 3.13462 18.1619 3.85028 18.9885 3.90657L19.0904 2.41004L19.1923 0.91351ZM12.2377 4.08259C13.0571 3.96068 13.6225 3.19759 13.5006 2.37818C13.3787 1.55877 12.6156 0.993339 11.7962 1.11525L12.017 2.59892L12.2377 4.08259ZM4.62654 3.86986C3.97152 4.37704 3.85167 5.3192 4.35885 5.97422C4.86604 6.62924 5.80819 6.74909 6.46322 6.2419L5.54488 5.05588L4.62654 3.86986ZM3.98364 11.178C4.01836 10.3503 3.37552 9.65122 2.54782 9.61651C1.72012 9.58179 1.02099 10.2246 0.98628 11.0523L2.48496 11.1152L3.98364 11.178ZM2.68019 18.5158C3.02525 19.2689 3.91552 19.5997 4.66866 19.2547C5.4218 18.9096 5.75262 18.0193 5.40756 17.2662L4.04387 17.891L2.68019 18.5158ZM8.96213 22.9085C8.44445 22.2618 7.50048 22.1571 6.85372 22.6748C6.20697 23.1925 6.10234 24.1365 6.62003 24.7832L7.79108 23.8459L8.96213 22.9085ZM11.693 30.043C12.318 30.5868 13.2654 30.521 13.8093 29.8961C14.3531 29.2712 14.2873 28.3237 13.6624 27.7799L12.6777 28.9114L11.693 30.043ZM19.1283 31.7915C18.422 31.3586 17.4985 31.5802 17.0656 32.2865C16.6327 32.9928 16.8543 33.9164 17.5606 34.3493L18.3445 33.0704L19.1283 31.7915ZM24.098 37.6062C24.8701 37.9065 25.7394 37.5241 26.0397 36.752C26.34 35.9799 25.9576 35.1106 25.1855 34.8103L24.6417 36.2083L24.098 37.6062ZM31.6565 36.5989C30.8389 36.4654 30.0679 37.0199 29.9343 37.8375C29.8007 38.6551 30.3552 39.4261 31.1728 39.5597L31.4147 38.0793L31.6565 36.5989ZM38.5514 39.8641C39.3768 39.7936 39.9888 39.0673 39.9182 38.2418C39.8477 37.4164 39.1214 36.8045 38.2959 36.875L38.4237 38.3696L38.5514 39.8641ZM44.7429 35.4323C43.9665 35.7213 43.5714 36.585 43.8603 37.3613C44.1493 38.1377 45.013 38.5328 45.7894 38.2438L45.2661 36.8381L44.7429 35.4323ZM52.3184 34.7831C52.9959 34.3064 53.1587 33.3707 52.682 32.6932C52.2053 32.0156 51.2696 31.8528 50.5921 32.3295L51.4552 33.5563L52.3184 34.7831ZM55.5904 27.9162C55.0281 28.5245 55.0653 29.4735 55.6737 30.0359C56.282 30.5982 57.231 30.5609 57.7934 29.9526L56.6919 28.9344L55.5904 27.9162ZM62.2477 24.2239C62.7038 23.5323 62.5129 22.602 61.8214 22.1459C61.1298 21.6898 60.1994 21.8807 59.7433 22.5723L60.9955 23.3981L62.2477 24.2239ZM63.1274 16.6406C62.7599 17.3831 63.0637 18.2829 63.8062 18.6504C64.5486 19.018 65.4484 18.7141 65.816 17.9717L64.4717 17.3062L63.1274 16.6406ZM119.013 127.872L120.489 128.139C120.909 125.824 121.291 123.558 121.635 121.342L120.153 121.112L118.671 120.881C118.33 123.072 117.953 125.312 117.537 127.604L119.013 127.872ZM121.109 114.335L122.598 114.523C122.895 112.166 123.148 109.868 123.356 107.628L121.862 107.49L120.369 107.351C120.164 109.557 119.915 111.821 119.621 114.147L121.109 114.335ZM122.37 100.642L123.868 100.724C123.998 98.3525 124.073 96.0504 124.097 93.8152L122.597 93.7996L121.097 93.784C121.074 95.973 121 98.2309 120.873 100.56L122.37 100.642ZM122.494 86.9213L123.992 86.8587C123.893 84.4659 123.726 82.1566 123.496 79.9271L122.004 80.0813L120.512 80.2356C120.736 82.4011 120.898 84.6492 120.995 86.9838L122.494 86.9213ZM121.06 73.298L122.537 73.0362C122.116 70.6599 121.613 68.3844 121.03 66.2041L119.581 66.5912L118.132 66.9783C118.691 69.0722 119.176 71.2639 119.583 73.5598L121.06 73.298ZM117.49 60.0571L118.894 59.5278C118.043 57.2703 117.094 55.1298 116.052 53.0981L114.718 53.7822L113.383 54.4664C114.371 56.395 115.274 58.432 116.087 60.5864L117.49 60.0571ZM111.221 47.8759L112.462 47.0332C111.121 45.059 109.679 43.2066 108.142 41.4649L107.017 42.4572L105.892 43.4495C107.347 45.0981 108.711 46.8507 109.98 48.7187L111.221 47.8759ZM102.173 37.6026L103.169 36.4812C101.418 34.9264 99.5806 33.476 97.6638 32.1178L96.7966 33.3418L95.9294 34.5657C97.7622 35.8643 99.5133 37.2467 101.176 38.724L102.173 37.6026ZM91.0113 29.6505L91.7594 28.3504C90.7542 27.772 89.7322 27.2124 88.6944 26.6704L88 28L87.3056 29.3296C88.3088 29.8535 89.2949 30.3934 90.2631 30.9506L91.0113 29.6505ZM88 28L88.6944 26.6704C87.5883 26.0927 86.4948 25.5263 85.4139 24.971L84.7285 26.3053L84.0431 27.6396C85.1179 28.1916 86.2054 28.7549 87.3056 29.3296L88 28ZM78.4117 23.1162L79.078 21.7723C76.9389 20.7119 74.8529 19.6982 72.8189 18.7297L72.174 20.0841L71.5292 21.4384C73.5484 22.3998 75.6202 23.4066 77.7455 24.4602L78.4117 23.1162ZM65.71 17.0786L66.3293 15.7124C64.131 14.7158 61.9992 13.7765 59.9323 12.8922L59.3423 14.2713L58.7523 15.6504C60.7986 16.5259 62.9109 17.4566 65.0906 18.4447L65.71 17.0786ZM52.8211 11.5772L53.3754 10.1833C51.0659 9.2649 48.8471 8.42226 46.7164 7.65191L46.2064 9.06254L45.6964 10.4732C47.7955 11.2321 49.9848 12.0635 52.2668 12.971L52.8211 11.5772ZM39.666 6.83453L40.1209 5.40516C37.7148 4.63944 35.4385 3.97831 33.2875 3.41528L32.9076 4.8664L32.5278 6.31751C34.6242 6.86622 36.8502 7.51256 39.2111 8.26389L39.666 6.83453ZM26.0141 3.31446L26.2858 1.83927C23.702 1.36341 21.3412 1.05988 19.1923 0.91351L19.0904 2.41004L18.9885 3.90657C21.0072 4.04408 23.2536 4.33129 25.7424 4.78965L26.0141 3.31446ZM12.017 2.59892L11.7962 1.11525C8.80337 1.56052 6.40917 2.48956 4.62654 3.86986L5.54488 5.05588L6.46322 6.2419C7.73109 5.26019 9.59785 4.47534 12.2377 4.08259L12.017 2.59892ZM2.48496 11.1152L0.98628 11.0523C0.885972 13.444 1.52653 15.9977 2.68019 18.5158L4.04387 17.891L5.40756 17.2662C4.38674 15.0381 3.90879 12.9628 3.98364 11.178L2.48496 11.1152ZM7.79108 23.8459L6.62003 24.7832C8.08523 26.6137 9.79356 28.39 11.693 30.043L12.6777 28.9114L13.6624 27.7799C11.8921 26.2393 10.3097 24.5921 8.96213 22.9085L7.79108 23.8459ZM18.3445 33.0704L17.5606 34.3493C19.6214 35.6124 21.8136 36.7177 24.098 37.6062L24.6417 36.2083L25.1855 34.8103C23.079 33.991 21.0469 32.9674 19.1283 31.7915L18.3445 33.0704ZM31.4147 38.0793L31.1728 39.5597C33.5906 39.9547 36.0642 40.0767 38.5514 39.8641L38.4237 38.3696L38.2959 36.875C36.0747 37.0649 33.85 36.9573 31.6565 36.5989L31.4147 38.0793ZM45.2661 36.8381L45.7894 38.2438C48.0105 37.4171 50.1969 36.2757 52.3184 34.7831L51.4552 33.5563L50.5921 32.3295C48.6772 33.6768 46.7188 34.6968 44.7429 35.4323L45.2661 36.8381ZM56.6919 28.9344L57.7934 29.9526C59.3404 28.279 60.8292 26.3748 62.2477 24.2239L60.9955 23.3981L59.7433 22.5723C58.4079 24.5971 57.0186 26.3711 55.5904 27.9162L56.6919 28.9344ZM64.4717 17.3062L65.816 17.9717C66.3506 16.8918 66.8714 15.7666 67.3775 14.5947L66.0004 14L64.6233 13.4053C64.1371 14.5312 63.6381 15.6091 63.1274 16.6406L64.4717 17.3062Z" fill="white"/>
</svg>
