<svg width="60" height="60" viewBox="0 0 60 60" fill="none" xmlns="http://www.w3.org/2000/svg">
<g clip-path="url(#clip0_9827_301)">
<path d="M-0.209961 60.21L47.3425 40.4425L19.5575 12.6575L-0.209961 60.21ZM16.3825 33.3225L26.6775 43.6175L9.05754 50.9425L16.3825 33.3225ZM38.5225 38.6925L31.67 41.54L18.4575 28.3275L21.305 21.475L38.52 38.6925H38.5225ZM34.125 18.8725C36.53 16.465 37.7 14.0175 37.6 11.595C37.445 7.8275 34.31 5.0775 34.2775 5.05L37.5075 1.2325C37.705 1.4 42.345 5.3925 42.595 11.3875C42.755 15.265 41.095 18.9725 37.66 22.4075L34.125 18.8725ZM59.12 28.7125L55.3175 31.9575C55.3025 31.9375 53.6475 30.0725 51.4725 30.0025C50.06 29.895 48.67 30.66 47.235 32.095L43.7 28.56C46.175 26.0875 48.9 24.91 51.7125 25.0075C56.02 25.185 58.815 28.3525 59.12 28.7125ZM52.5 3.75C52.5 1.68 54.18 0 56.25 0C58.32 0 60 1.68 60 3.75C60 5.82 58.32 7.5 56.25 7.5C54.18 7.5 52.5 5.82 52.5 3.75ZM47.5 16.25C47.5 14.18 49.18 12.5 51.25 12.5C53.32 12.5 55 14.18 55 16.25C55 18.32 53.32 20 51.25 20C49.18 20 47.5 18.32 47.5 16.25ZM20 6.25C20 4.18 21.68 2.5 23.75 2.5C25.82 2.5 27.5 4.18 27.5 6.25C27.5 8.32 25.82 10 23.75 10C21.68 10 20 8.32 20 6.25ZM57.5 46.25C57.5 48.32 55.82 50 53.75 50C51.68 50 50 48.32 50 46.25C50 44.18 51.68 42.5 53.75 42.5C55.82 42.5 57.5 44.18 57.5 46.25ZM2.50004 8.75C2.50004 6.68 4.18004 5 6.25004 5C8.32004 5 10 6.68 10 8.75C10 10.82 8.32004 12.5 6.25004 12.5C4.18004 12.5 2.50004 10.82 2.50004 8.75ZM45 56.25C45 58.32 43.32 60 41.25 60C39.18 60 37.5 58.32 37.5 56.25C37.5 54.18 39.18 52.5 41.25 52.5C43.32 52.5 45 54.18 45 56.25Z" fill="#E6514A"/>
</g>
<defs>
<clipPath id="clip0_9827_301">
<rect width="60" height="60" fill="white"/>
</clipPath>
</defs>
</svg>
