<svg width="60" height="60" viewBox="0 0 60 60" fill="none" xmlns="http://www.w3.org/2000/svg">
<g clip-path="url(#clip0_9827_272)">
<path d="M5 6.25C5 2.7975 7.7975 0 11.25 0C14.7025 0 17.5 2.7975 17.5 6.25C17.5 9.7025 14.7025 12.5 11.25 12.5C7.7975 12.5 5 9.7025 5 6.25ZM17.5 25C16.1175 25 15 26.12 15 27.5V37.5H10C7.2425 37.5 5 35.2575 5 32.5V25C5 22.2425 7.2425 20 10 20H35C36.3825 20 37.5 18.88 37.5 17.5C37.5 16.12 36.3825 15 35 15H10C4.485 15 0 19.485 0 25V32.5C0 36.185 2.025 39.375 5 41.11V57.5C5 58.8825 6.1175 60 7.5 60C8.8825 60 10 58.8825 10 57.5V42.5H15V57.5C15 58.8825 16.1175 60 17.5 60C18.8825 60 20 58.8825 20 57.5V27.5C20 26.12 18.8825 25 17.5 25ZM48.75 0H25C23.6175 0 22.5 1.12 22.5 2.5C22.5 3.88 23.6175 5 25 5H48.75C52.1975 5 55 7.805 55 11.25V26.25C55 29.695 52.1975 32.5 48.75 32.5H47.5V30C47.5 28.62 46.3825 27.5 45 27.5H40C38.6175 27.5 37.5 28.62 37.5 30V32.5H27.5C26.1175 32.5 25 33.6175 25 35C25 36.3825 26.1175 37.5 27.5 37.5H48.75C54.9525 37.5 60 32.4525 60 26.25V11.25C60 5.0475 54.9525 0 48.75 0Z" fill="#E6514A"/>
</g>
<defs>
<clipPath id="clip0_9827_272">
<rect width="60" height="60" fill="white"/>
</clipPath>
</defs>
</svg>
