<svg width="62" height="60" viewBox="0 0 62 60" fill="none" xmlns="http://www.w3.org/2000/svg">
<g clip-path="url(#clip0_9827_287)">
<path fill-rule="evenodd" clip-rule="evenodd" d="M11.683 20.8926C10.9742 21.3052 10.3801 21.7121 9.91195 22.0618C9.40195 22.4429 8.63285 22.1173 8.65885 21.4812C8.68643 20.8063 8.75808 19.9778 8.92181 19.1092C9.18228 17.7275 9.67578 16.2443 10.5956 15.1167C9.91722 13.81 9.54317 12.3794 9.54317 10.8798C9.54317 4.70641 15.8822 -0.298096 23.7018 -0.298096C31.5214 -0.298096 37.8604 4.70641 37.8604 10.8798C37.8604 17.0531 31.5214 22.0577 23.7018 22.0577C20.2679 22.0577 17.1195 21.0926 14.6681 19.4872C13.5243 19.9069 12.523 20.4038 11.683 20.8926ZM13.9185 15.0477C14.0554 15.3116 14.0225 15.6317 13.8345 15.8621L12.9378 16.9613C13.1667 16.868 13.4014 16.7769 13.6415 16.6889L14.6963 16.302C14.9175 16.2207 15.1641 16.2491 15.3611 16.3781L16.3011 16.9936C18.2418 18.2645 20.8169 19.0769 23.7018 19.0769C30.5704 19.0769 34.8797 14.7888 34.8797 10.8798C34.8797 6.97087 30.5704 2.68267 23.7018 2.68267C16.8332 2.68267 12.5239 6.97087 12.5239 10.8798C12.5239 11.8725 12.7694 12.8346 13.2411 13.7431L13.9185 15.0477Z" fill="#E6514A"/>
<path fill-rule="evenodd" clip-rule="evenodd" d="M43.0773 10.1346C41.3603 10.1346 39.8812 10.492 38.6709 11.0683C37.6108 11.5607 36.7167 12.2257 36.0637 13.0086C36.2647 12.3237 36.3706 11.6111 36.3706 10.8798C36.3706 10.2636 36.2954 9.66087 36.1515 9.07664C38.0558 7.87256 40.4616 7.15381 43.0773 7.15381C49.2507 7.15381 54.2552 11.1574 54.2552 16.0961C54.2552 17.3574 53.9287 18.5578 53.3397 19.6461C53.2084 19.8888 53.2066 20.1819 53.3272 20.4302C53.4692 20.7226 53.5877 21.0278 53.6864 21.3368C53.9554 22.1793 54.0774 23.0501 54.1291 23.7671C54.1751 24.4022 53.4059 24.7351 52.8841 24.3704C52.4069 24.0367 51.8018 23.6597 51.0828 23.3024C50.9426 23.2328 50.798 23.164 50.6492 23.0962C50.4203 22.9921 50.1553 23.0209 49.9421 23.154C48.0475 24.335 45.6651 25.0384 43.0773 25.0384C37.7568 25.0384 33.3044 22.0645 32.1758 18.0813C33.2983 17.3084 34.2394 16.3842 34.9436 15.3508C34.9017 15.5949 34.8802 15.8436 34.8802 16.0961C34.8802 18.2089 36.3915 20.065 38.6707 21.1239C39.8811 21.7003 41.3603 22.0577 43.0773 22.0577C47.5895 22.0577 51.2502 19.4063 51.2743 16.1288C51.2743 16.1179 51.2745 16.107 51.2745 16.0961C51.2745 16.0918 51.2745 16.0876 51.2745 16.0833C51.2684 13.9759 49.7586 12.1251 47.4841 11.0685C46.2738 10.492 44.7944 10.1346 43.0773 10.1346Z" fill="#E6514A"/>
<path fill-rule="evenodd" clip-rule="evenodd" d="M14.6062 41.4326C17.0771 41.4326 19.0774 39.4324 19.0774 36.9614C19.0774 34.4905 17.0771 32.4903 14.6062 32.4903C12.1353 32.4903 10.1351 34.4905 10.1351 36.9614C10.1351 39.4324 12.1353 41.4326 14.6062 41.4326ZM14.6062 44.4134C18.7234 44.4134 22.0581 41.0786 22.0581 36.9614C22.0581 32.8443 18.7234 29.5095 14.6062 29.5095C10.489 29.5095 7.1543 32.8443 7.1543 36.9614C7.1543 41.0786 10.489 44.4134 14.6062 44.4134Z" fill="#E6514A"/>
<path fill-rule="evenodd" clip-rule="evenodd" d="M3.60921 53.0407C2.88489 53.7699 2.68292 54.358 2.68292 54.8461V56.3365H29.5098V54.8461C29.5098 54.358 29.3079 53.7699 28.5836 53.0407C27.832 52.284 26.6617 51.5363 25.1517 50.8763C22.1156 49.5494 18.4236 48.8846 16.0964 48.8846C13.7691 48.8846 10.0772 49.5494 7.04107 50.8763C5.531 51.5363 4.36073 52.284 3.60921 53.0407ZM16.0964 45.9038C10.6249 45.9038 -0.297852 48.8995 -0.297852 54.8461V59.3173H32.4906V54.8461C32.4906 48.8995 21.568 45.9038 16.0964 45.9038Z" fill="#E6514A"/>
<path fill-rule="evenodd" clip-rule="evenodd" d="M47.3943 41.4326C49.8652 41.4326 51.8655 39.4324 51.8655 36.9614C51.8655 34.4905 49.8652 32.4903 47.3943 32.4903C44.9234 32.4903 42.9232 34.4905 42.9232 36.9614C42.9232 39.4324 44.9234 41.4326 47.3943 41.4326ZM47.3943 44.4134C51.5115 44.4134 54.8462 41.0786 54.8462 36.9614C54.8462 32.8443 51.5115 29.5095 47.3943 29.5095C43.2771 29.5095 39.9424 32.8443 39.9424 36.9614C39.9424 41.0786 43.2771 44.4134 47.3943 44.4134Z" fill="#E6514A"/>
<path fill-rule="evenodd" clip-rule="evenodd" d="M30.9996 38.4518C32.6471 38.4518 33.9804 37.1185 33.9804 35.4711C33.9804 33.8236 32.6471 32.4903 30.9996 32.4903C29.3522 32.4903 28.0189 33.8236 28.0189 35.4711C28.0189 37.1185 29.3522 38.4518 30.9996 38.4518ZM30.9996 41.4326C34.2934 41.4326 36.9612 38.7648 36.9612 35.4711C36.9612 32.1773 34.2934 29.5095 30.9996 29.5095C27.7059 29.5095 25.0381 32.1773 25.0381 35.4711C25.0381 38.7648 27.7059 41.4326 30.9996 41.4326Z" fill="#E6514A"/>
<path fill-rule="evenodd" clip-rule="evenodd" d="M33.4168 53.0407C32.6925 53.7699 32.4905 54.358 32.4905 54.8461V56.3365H59.3175V54.8461C59.3175 54.358 59.1155 53.7699 58.3912 53.0407C57.6396 52.284 56.4693 51.5363 54.9593 50.8763C51.9232 49.5494 48.2312 48.8846 45.904 48.8846C43.5768 48.8846 39.8848 49.5494 36.8487 50.8763C35.3387 51.5363 34.1684 52.284 33.4168 53.0407ZM45.904 45.9038C40.4325 45.9038 29.5098 48.8995 29.5098 54.8461V59.3173H62.2982V54.8461C62.2982 48.8995 51.3756 45.9038 45.904 45.9038Z" fill="#E6514A"/>
<path fill-rule="evenodd" clip-rule="evenodd" d="M31.0004 45.9039C26.0682 45.9039 22.612 48.2028 21.6215 49.1933L19.5137 47.0856C21.0072 45.5922 25.2016 42.9231 31.0004 42.9231C36.799 42.9231 40.9934 45.5922 42.4869 47.0856L40.3791 49.1933C39.3885 48.2028 35.9323 45.9039 31.0004 45.9039Z" fill="#E6514A"/>
</g>
<defs>
<clipPath id="clip0_9827_287">
<rect width="62" height="59.6154" fill="white"/>
</clipPath>
</defs>
</svg>
