<svg width="180" height="180" viewBox="0 0 180 180" fill="none" xmlns="http://www.w3.org/2000/svg">
<path d="M90.5 90L102 180H79L90.5 90Z" fill="url(#paint0_linear_12747_22056)"/>
<path d="M90 89.5L180 78V101L90 89.5Z" fill="url(#paint1_linear_12747_22056)"/>
<path d="M90.5 90L102 0H79L90.5 90Z" fill="url(#paint2_linear_12747_22056)"/>
<path d="M90 89.5L0 78V101L90 89.5Z" fill="url(#paint3_linear_12747_22056)"/>
<path d="M90.3505 89.6465L162.122 145.154L145.858 161.418L90.3505 89.6465Z" fill="url(#paint4_linear_12747_22056)"/>
<path d="M89.6495 89.6465L145.157 17.8751L161.421 34.1386L89.6495 89.6465Z" fill="url(#paint5_linear_12747_22056)"/>
<path d="M90.3505 89.6465L34.8426 17.8751L18.5791 34.1386L90.3505 89.6465Z" fill="url(#paint6_linear_12747_22056)"/>
<path d="M89.6495 89.6465L17.8782 145.154L34.1416 161.418L89.6495 89.6465Z" fill="url(#paint7_linear_12747_22056)"/>
<path d="M90.4639 90.815L134.471 170.16L113.106 178.676L90.4639 90.815Z" fill="url(#paint8_linear_12747_22056)"/>
<path d="M89.8122 90.5356L169.157 46.5285L177.673 67.8937L89.8122 90.5356Z" fill="url(#paint9_linear_12747_22056)"/>
<path d="M90.4639 90.815L67.8219 2.95377L46.4567 11.47L90.4639 90.815Z" fill="url(#paint10_linear_12747_22056)"/>
<path d="M89.8122 90.5356L1.95096 113.178L10.4672 134.543L89.8122 90.5356Z" fill="url(#paint11_linear_12747_22056)"/>
<path d="M90.199 90.5408L177.422 115.528L168.337 136.658L90.199 90.5408Z" fill="url(#paint12_linear_12747_22056)"/>
<path d="M89.5369 90.8025L114.524 3.57943L135.654 12.665L89.5369 90.8025Z" fill="url(#paint13_linear_12747_22056)"/>
<path d="M90.199 90.5408L12.0615 44.4238L2.97593 65.5532L90.199 90.5408Z" fill="url(#paint14_linear_12747_22056)"/>
<path d="M89.5369 90.8025L43.4199 168.94L64.5493 178.026L89.5369 90.8025Z" fill="url(#paint15_linear_12747_22056)"/>
<g filter="url(#filter0_d_12747_22056)">
<mask id="path-17-outside-1_12747_22056" maskUnits="userSpaceOnUse" x="45" y="46" width="89" height="89" fill="black">
<rect fill="white" x="45" y="46" width="89" height="89"/>
<path d="M132.418 89.3221H125.348L129.924 84.7454L127.962 82.7828L121.419 89.3261H118.561L127.302 80.5844L125.34 78.6218L117.937 86.0245C117.21 81.6197 115.479 77.5586 112.981 74.0731H123.453V71.2951H111.087L113.109 69.2726H122.362V66.4946H115.887L120.887 61.4942L118.925 59.5317L113.924 64.532V58.0527H111.147V67.306L109.128 69.3246V56.9615H106.35V67.4339C102.869 64.9397 98.8041 63.205 94.3995 62.4775L101.802 55.0749L99.8393 53.1123L91.094 61.854V58.996L97.637 52.4528L95.6745 50.4902L91.098 55.0669V48H88.3202V55.0709L83.7437 50.4942L81.7812 52.4568L88.3242 59V61.858L79.5829 53.1163L77.6204 55.0789L85.0227 62.4815C80.6181 63.209 76.5572 64.9397 73.0719 67.4379V56.9615H70.2941V69.3246L68.2716 67.302V58.0527H65.4937V64.528L60.4936 59.5277L58.5311 61.4902L63.5313 66.4906H57.0563V69.2686H66.3091L68.3316 71.2911H55.9651V74.0691H66.437C63.9429 77.5506 62.2083 81.6157 61.4808 86.0205L54.0785 78.6178L52.1161 80.5804L60.8573 89.3261H57.9995L51.4566 82.7828L49.4941 84.7454L54.0705 89.3221H47V92.1001H54.0705L49.4941 96.6768L51.4566 98.6394L57.9995 92.0961H60.8573L52.1161 100.842L54.0785 102.804L61.4768 95.4017C62.2043 99.8065 63.9349 103.868 66.433 107.353H55.9611V110.131H68.3276L66.3091 112.15H57.0563V114.928H63.5313L58.5311 119.928L60.4936 121.891L65.4937 116.89V123.365H68.2716V114.112L70.2941 112.09V124.453H73.0719V113.98C76.5532 116.474 80.6181 118.209 85.0227 118.937L77.6204 126.339L79.5829 128.302L88.3242 119.56V122.418L81.7812 128.961L83.7437 130.924L88.3202 126.347V133.418H91.098V126.347L95.6745 130.924L97.637 128.961L91.094 122.418V119.56L99.8393 128.302L101.802 126.339L94.3995 118.937C98.8041 118.209 102.865 116.478 106.35 113.98V124.453H109.128V112.09L111.147 114.108V123.361H113.924V116.886L118.925 121.887L120.887 119.924L115.887 114.924H122.362V112.146H113.109L111.091 110.127H123.453V107.349H112.981C115.475 103.868 117.21 99.8025 117.937 95.3977L125.34 102.8L127.302 100.838L118.561 92.0921H121.419L127.962 98.6354L129.924 96.6728L125.348 92.0961H132.418V89.3181V89.3221Z"/>
</mask>
<path d="M132.418 89.3221H125.348L129.924 84.7454L127.962 82.7828L121.419 89.3261H118.561L127.302 80.5844L125.34 78.6218L117.937 86.0245C117.21 81.6197 115.479 77.5586 112.981 74.0731H123.453V71.2951H111.087L113.109 69.2726H122.362V66.4946H115.887L120.887 61.4942L118.925 59.5317L113.924 64.532V58.0527H111.147V67.306L109.128 69.3246V56.9615H106.35V67.4339C102.869 64.9397 98.8041 63.205 94.3995 62.4775L101.802 55.0749L99.8393 53.1123L91.094 61.854V58.996L97.637 52.4528L95.6745 50.4902L91.098 55.0669V48H88.3202V55.0709L83.7437 50.4942L81.7812 52.4568L88.3242 59V61.858L79.5829 53.1163L77.6204 55.0789L85.0227 62.4815C80.6181 63.209 76.5572 64.9397 73.0719 67.4379V56.9615H70.2941V69.3246L68.2716 67.302V58.0527H65.4937V64.528L60.4936 59.5277L58.5311 61.4902L63.5313 66.4906H57.0563V69.2686H66.3091L68.3316 71.2911H55.9651V74.0691H66.437C63.9429 77.5506 62.2083 81.6157 61.4808 86.0205L54.0785 78.6178L52.1161 80.5804L60.8573 89.3261H57.9995L51.4566 82.7828L49.4941 84.7454L54.0705 89.3221H47V92.1001H54.0705L49.4941 96.6768L51.4566 98.6394L57.9995 92.0961H60.8573L52.1161 100.842L54.0785 102.804L61.4768 95.4017C62.2043 99.8065 63.9349 103.868 66.433 107.353H55.9611V110.131H68.3276L66.3091 112.15H57.0563V114.928H63.5313L58.5311 119.928L60.4936 121.891L65.4937 116.89V123.365H68.2716V114.112L70.2941 112.09V124.453H73.0719V113.98C76.5532 116.474 80.6181 118.209 85.0227 118.937L77.6204 126.339L79.5829 128.302L88.3242 119.56V122.418L81.7812 128.961L83.7437 130.924L88.3202 126.347V133.418H91.098V126.347L95.6745 130.924L97.637 128.961L91.094 122.418V119.56L99.8393 128.302L101.802 126.339L94.3995 118.937C98.8041 118.209 102.865 116.478 106.35 113.98V124.453H109.128V112.09L111.147 114.108V123.361H113.924V116.886L118.925 121.887L120.887 119.924L115.887 114.924H122.362V112.146H113.109L111.091 110.127H123.453V107.349H112.981C115.475 103.868 117.21 99.8025 117.937 95.3977L125.34 102.8L127.302 100.838L118.561 92.0921H121.419L127.962 98.6354L129.924 96.6728L125.348 92.0961H132.418V89.3181V89.3221Z" fill="#58AAE1"/>
<path d="M132.418 89.3221H125.348L129.924 84.7454L127.962 82.7828L121.419 89.3261H118.561L127.302 80.5844L125.34 78.6218L117.937 86.0245C117.21 81.6197 115.479 77.5586 112.981 74.0731H123.453V71.2951H111.087L113.109 69.2726H122.362V66.4946H115.887L120.887 61.4942L118.925 59.5317L113.924 64.532V58.0527H111.147V67.306L109.128 69.3246V56.9615H106.35V67.4339C102.869 64.9397 98.8041 63.205 94.3995 62.4775L101.802 55.0749L99.8393 53.1123L91.094 61.854V58.996L97.637 52.4528L95.6745 50.4902L91.098 55.0669V48H88.3202V55.0709L83.7437 50.4942L81.7812 52.4568L88.3242 59V61.858L79.5829 53.1163L77.6204 55.0789L85.0227 62.4815C80.6181 63.209 76.5572 64.9397 73.0719 67.4379V56.9615H70.2941V69.3246L68.2716 67.302V58.0527H65.4937V64.528L60.4936 59.5277L58.5311 61.4902L63.5313 66.4906H57.0563V69.2686H66.3091L68.3316 71.2911H55.9651V74.0691H66.437C63.9429 77.5506 62.2083 81.6157 61.4808 86.0205L54.0785 78.6178L52.1161 80.5804L60.8573 89.3261H57.9995L51.4566 82.7828L49.4941 84.7454L54.0705 89.3221H47V92.1001H54.0705L49.4941 96.6768L51.4566 98.6394L57.9995 92.0961H60.8573L52.1161 100.842L54.0785 102.804L61.4768 95.4017C62.2043 99.8065 63.9349 103.868 66.433 107.353H55.9611V110.131H68.3276L66.3091 112.15H57.0563V114.928H63.5313L58.5311 119.928L60.4936 121.891L65.4937 116.89V123.365H68.2716V114.112L70.2941 112.09V124.453H73.0719V113.98C76.5532 116.474 80.6181 118.209 85.0227 118.937L77.6204 126.339L79.5829 128.302L88.3242 119.56V122.418L81.7812 128.961L83.7437 130.924L88.3202 126.347V133.418H91.098V126.347L95.6745 130.924L97.637 128.961L91.094 122.418V119.56L99.8393 128.302L101.802 126.339L94.3995 118.937C98.8041 118.209 102.865 116.478 106.35 113.98V124.453H109.128V112.09L111.147 114.108V123.361H113.924V116.886L118.925 121.887L120.887 119.924L115.887 114.924H122.362V112.146H113.109L111.091 110.127H123.453V107.349H112.981C115.475 103.868 117.21 99.8025 117.937 95.3977L125.34 102.8L127.302 100.838L118.561 92.0921H121.419L127.962 98.6354L129.924 96.6728L125.348 92.0961H132.418V89.3181V89.3221Z" stroke="#ACCEE7" stroke-width="3.16364" stroke-linejoin="round" mask="url(#path-17-outside-1_12747_22056)"/>
<g filter="url(#filter1_d_12747_22056)">
<path d="M89.7054 121.485C106.702 121.485 120.481 107.706 120.481 90.7091C120.481 73.7122 106.702 59.9335 89.7054 59.9335C72.7084 59.9335 58.9297 73.7122 58.9297 90.7091C58.9297 107.706 72.7084 121.485 89.7054 121.485Z" fill="#ACDBFC"/>
<path d="M89.7051 60.9335C106.15 60.9335 119.481 74.2643 119.481 90.7089C119.481 107.154 106.15 120.485 89.7051 120.485C73.2606 120.485 59.9297 107.153 59.9297 90.7089C59.9298 74.2644 73.2607 60.9336 89.7051 60.9335Z" stroke="#3035C4" stroke-width="2"/>
</g>
<g clip-path="url(#clip0_12747_22056)">
<path d="M97.5038 85.4583C97.5038 86.5081 97.0868 87.5149 96.3444 88.2572C95.6021 88.9996 94.5953 89.4166 93.5455 89.4166C92.4956 89.4166 91.4888 88.9996 90.7465 88.2572C90.0042 87.5149 89.5871 86.5081 89.5871 85.4583C89.5871 84.4085 90.0042 83.4016 90.7465 82.6593C91.4888 81.917 92.4956 81.4999 93.5455 81.4999C94.5953 81.4999 95.6021 81.917 96.3444 82.6593C97.0868 83.4016 97.5038 84.4085 97.5038 85.4583ZM97.4943 96.3294C97.4073 98.8451 96.7793 101.313 95.6529 103.564C94.615 105.526 93.0567 107.165 91.1488 108.301C89.2409 109.436 87.0572 110.024 84.8371 110H83.2538V101.292C83.2467 99.8241 82.6606 98.4186 81.6229 97.3809C80.5851 96.3431 79.1797 95.757 77.7121 95.7499H69.0038V94.1666C68.9798 91.9466 69.5678 89.7628 70.7031 87.8549C71.8385 85.947 73.4774 84.3887 75.44 83.3509C77.6912 82.2245 80.1586 81.5964 82.6743 81.5094C84.981 78.53 87.9432 76.1222 91.3312 74.473C94.7191 72.8238 98.4415 71.9775 102.209 71.9999C102.836 71.996 103.458 72.1158 104.039 72.3526C104.619 72.5893 105.147 72.9384 105.593 73.3797C106.038 73.8209 106.392 74.3458 106.634 74.9242C106.876 75.5025 107.002 76.123 107.004 76.7499C107.031 80.525 106.187 84.2553 104.537 87.6511C102.888 91.0468 100.478 94.0166 97.4943 96.3294ZM72.3035 92.5833H75.885C77.0608 89.9644 78.4421 87.4427 80.0159 85.0419C78.9228 85.2962 77.8636 85.6788 76.8603 86.1819C75.6537 86.819 74.6131 87.7299 73.8218 88.8415C73.0305 89.9531 72.5105 91.2346 72.3035 92.5833ZM93.9619 98.9879C91.561 100.562 89.0393 101.943 86.4205 103.119V106.7C87.7692 106.493 89.0506 105.973 90.1622 105.182C91.2739 104.391 92.1847 103.35 92.8219 102.143C93.3249 101.14 93.7076 100.081 93.9619 98.9879ZM103.837 76.7056C103.826 76.2934 103.654 75.902 103.358 75.6146C103.062 75.3272 102.666 75.1665 102.254 75.1666C94.0838 75.3994 88.558 78.5296 83.2253 85.9681C81.7372 88.1107 80.4286 90.3725 79.3129 92.7305C81.0417 93.0525 82.6326 93.8904 83.8761 95.1339C85.1197 96.3774 85.9576 97.9683 86.2795 99.6972C88.6376 98.5815 90.8994 97.2729 93.042 95.7848C100.474 90.4458 103.604 84.9199 103.837 76.7056ZM78.697 100.308C79.5817 101.202 80.0779 102.409 80.0779 103.667C80.0779 104.924 79.5817 106.131 78.697 107.025C77.2609 108.459 72.9621 109.344 71.1793 109.66L68.9531 110.051L69.3442 107.824C69.6609 106.042 70.5444 101.743 71.9789 100.307C72.8841 99.4433 74.0872 98.9617 75.3382 98.962C76.5893 98.9623 77.7921 99.4445 78.697 100.308ZM76.9205 103.667C76.921 103.459 76.8803 103.253 76.8007 103.06C76.721 102.868 76.6041 102.694 76.4565 102.547C76.1596 102.25 75.757 102.084 75.3371 102.084C74.9173 102.084 74.5146 102.25 74.2177 102.547C73.6141 103.637 73.1901 104.817 72.9621 106.042C74.1873 105.813 75.3677 105.388 76.4581 104.784C76.6052 104.638 76.7217 104.464 76.8011 104.272C76.8805 104.08 76.921 103.874 76.9205 103.667Z" fill="#3035C3"/>
</g>
</g>
<defs>
<filter id="filter0_d_12747_22056" x="42.2582" y="46.4182" width="94.9054" height="94.9091" filterUnits="userSpaceOnUse" color-interpolation-filters="sRGB">
<feFlood flood-opacity="0" result="BackgroundImageFix"/>
<feColorMatrix in="SourceAlpha" type="matrix" values="0 0 0 0 0 0 0 0 0 0 0 0 0 0 0 0 0 0 127 0" result="hardAlpha"/>
<feOffset dy="3.16364"/>
<feGaussianBlur stdDeviation="1.58182"/>
<feComposite in2="hardAlpha" operator="out"/>
<feColorMatrix type="matrix" values="0 0 0 0 0 0 0 0 0 0 0 0 0 0 0 0 0 0 0.25 0"/>
<feBlend mode="normal" in2="BackgroundImageFix" result="effect1_dropShadow_12747_22056"/>
<feBlend mode="normal" in="SourceGraphic" in2="effect1_dropShadow_12747_22056" result="shape"/>
</filter>
<filter id="filter1_d_12747_22056" x="55.7661" y="59.9335" width="67.882" height="67.8787" filterUnits="userSpaceOnUse" color-interpolation-filters="sRGB">
<feFlood flood-opacity="0" result="BackgroundImageFix"/>
<feColorMatrix in="SourceAlpha" type="matrix" values="0 0 0 0 0 0 0 0 0 0 0 0 0 0 0 0 0 0 127 0" result="hardAlpha"/>
<feOffset dy="3.16364"/>
<feGaussianBlur stdDeviation="1.58182"/>
<feComposite in2="hardAlpha" operator="out"/>
<feColorMatrix type="matrix" values="0 0 0 0 0 0 0 0 0 0 0 0 0 0 0 0 0 0 0.25 0"/>
<feBlend mode="normal" in2="BackgroundImageFix" result="effect1_dropShadow_12747_22056"/>
<feBlend mode="normal" in="SourceGraphic" in2="effect1_dropShadow_12747_22056" result="shape"/>
</filter>
<linearGradient id="paint0_linear_12747_22056" x1="90.5" y1="90" x2="90.5" y2="180" gradientUnits="userSpaceOnUse">
<stop stop-color="#B6ABB3"/>
<stop offset="0.828125" stop-color="#D9D9D9" stop-opacity="0"/>
</linearGradient>
<linearGradient id="paint1_linear_12747_22056" x1="90" y1="89.5" x2="180" y2="89.5" gradientUnits="userSpaceOnUse">
<stop stop-color="#B6ABB3"/>
<stop offset="0.828125" stop-color="#D9D9D9" stop-opacity="0"/>
</linearGradient>
<linearGradient id="paint2_linear_12747_22056" x1="90.5" y1="90" x2="90.5" y2="0" gradientUnits="userSpaceOnUse">
<stop stop-color="#B6ABB3"/>
<stop offset="0.828125" stop-color="#D9D9D9" stop-opacity="0"/>
</linearGradient>
<linearGradient id="paint3_linear_12747_22056" x1="90" y1="89.5" x2="0" y2="89.5" gradientUnits="userSpaceOnUse">
<stop stop-color="#B6ABB3"/>
<stop offset="0.828125" stop-color="#D9D9D9" stop-opacity="0"/>
</linearGradient>
<linearGradient id="paint4_linear_12747_22056" x1="90.3505" y1="89.6465" x2="153.99" y2="153.286" gradientUnits="userSpaceOnUse">
<stop stop-color="#B6ABB3"/>
<stop offset="0.828125" stop-color="#D9D9D9" stop-opacity="0"/>
</linearGradient>
<linearGradient id="paint5_linear_12747_22056" x1="89.6495" y1="89.6465" x2="153.289" y2="26.0069" gradientUnits="userSpaceOnUse">
<stop stop-color="#B6ABB3"/>
<stop offset="0.828125" stop-color="#D9D9D9" stop-opacity="0"/>
</linearGradient>
<linearGradient id="paint6_linear_12747_22056" x1="90.3505" y1="89.6465" x2="26.7109" y2="26.0069" gradientUnits="userSpaceOnUse">
<stop stop-color="#B6ABB3"/>
<stop offset="0.828125" stop-color="#D9D9D9" stop-opacity="0"/>
</linearGradient>
<linearGradient id="paint7_linear_12747_22056" x1="89.6495" y1="89.6465" x2="26.0099" y2="153.286" gradientUnits="userSpaceOnUse">
<stop stop-color="#B6ABB3"/>
<stop offset="0.828125" stop-color="#D9D9D9" stop-opacity="0"/>
</linearGradient>
<linearGradient id="paint8_linear_12747_22056" x1="90.4639" y1="90.815" x2="123.788" y2="174.418" gradientUnits="userSpaceOnUse">
<stop stop-color="#BAE0F5"/>
<stop offset="0.744792" stop-color="#D9D9D9" stop-opacity="0"/>
</linearGradient>
<linearGradient id="paint9_linear_12747_22056" x1="89.8122" y1="90.5356" x2="173.415" y2="57.2111" gradientUnits="userSpaceOnUse">
<stop stop-color="#BAE0F5"/>
<stop offset="0.744792" stop-color="#D9D9D9" stop-opacity="0"/>
</linearGradient>
<linearGradient id="paint10_linear_12747_22056" x1="90.4639" y1="90.815" x2="57.1393" y2="7.21191" gradientUnits="userSpaceOnUse">
<stop stop-color="#BAE0F5"/>
<stop offset="0.744792" stop-color="#D9D9D9" stop-opacity="0"/>
</linearGradient>
<linearGradient id="paint11_linear_12747_22056" x1="89.8122" y1="90.5356" x2="6.2091" y2="123.86" gradientUnits="userSpaceOnUse">
<stop stop-color="#BAE0F5"/>
<stop offset="0.744792" stop-color="#D9D9D9" stop-opacity="0"/>
</linearGradient>
<linearGradient id="paint12_linear_12747_22056" x1="90.199" y1="90.5408" x2="172.879" y2="126.093" gradientUnits="userSpaceOnUse">
<stop stop-color="#BAE0F5"/>
<stop offset="0.744792" stop-color="#D9D9D9" stop-opacity="0"/>
</linearGradient>
<linearGradient id="paint13_linear_12747_22056" x1="89.5369" y1="90.8025" x2="125.089" y2="8.12222" gradientUnits="userSpaceOnUse">
<stop stop-color="#BAE0F5"/>
<stop offset="0.744792" stop-color="#D9D9D9" stop-opacity="0"/>
</linearGradient>
<linearGradient id="paint14_linear_12747_22056" x1="90.199" y1="90.5408" x2="7.51872" y2="54.9885" gradientUnits="userSpaceOnUse">
<stop stop-color="#BAE0F5"/>
<stop offset="0.744792" stop-color="#D9D9D9" stop-opacity="0"/>
</linearGradient>
<linearGradient id="paint15_linear_12747_22056" x1="89.5369" y1="90.8025" x2="53.9846" y2="173.483" gradientUnits="userSpaceOnUse">
<stop stop-color="#BAE0F5"/>
<stop offset="0.744792" stop-color="#D9D9D9" stop-opacity="0"/>
</linearGradient>
<clipPath id="clip0_12747_22056">
<rect width="38" height="38" fill="white" transform="translate(69 72)"/>
</clipPath>
</defs>
</svg>
