<svg width="60" height="60" viewBox="0 0 60 60" fill="none" xmlns="http://www.w3.org/2000/svg">
<g clip-path="url(#clip0_9827_265)">
<path d="M15 30C13.6175 30 12.5 28.88 12.5 27.5C12.5 22.77 15.58 17.5 20 17.5C24.42 17.5 27.5 22.77 27.5 27.5C27.5 28.88 26.3825 30 25 30C23.6175 30 22.5 28.88 22.5 27.5C22.5 24.865 20.8 22.5 20 22.5C19.2 22.5 17.5 24.865 17.5 27.5C17.5 28.88 16.3825 30 15 30ZM32.5 27.5C32.5 28.88 33.6175 30 35 30C36.3825 30 37.5 28.88 37.5 27.5C37.5 24.865 39.2 22.5 40 22.5C40.8 22.5 42.5 24.865 42.5 27.5C42.5 28.88 43.6175 30 45 30C46.3825 30 47.5 28.88 47.5 27.5C47.5 22.77 44.42 17.5 40 17.5C35.58 17.5 32.5 22.77 32.5 27.5ZM30 45C37.7675 45 43.9075 39.595 44.165 39.365C45.1925 38.4475 45.28 36.8725 44.365 35.8425C43.4475 34.8125 41.87 34.72 40.84 35.6325C40.79 35.6775 35.8275 40.0025 30 40.0025C24.1725 40.0025 19.2225 35.6875 19.16 35.6325C18.13 34.72 16.5575 34.8075 15.635 35.835C14.7175 36.865 14.805 38.445 15.835 39.365C16.0925 39.595 22.2325 45 30 45ZM49.8925 15.005C50.6825 15.64 51.815 15.64 52.605 15.005C55.0625 13.0325 59.9975 8.6 59.9975 4.8125C59.9975 2.155 58.0375 0 55.6225 0C53.2075 0 51.2475 2.155 51.2475 4.8125C51.2475 2.155 49.2875 0 46.8725 0C44.4575 0 42.4975 2.155 42.4975 4.8125C42.4975 8.5975 47.4325 13.0325 49.89 15.005H49.8925ZM13.125 42.5C10.71 42.5 8.75 44.655 8.75 47.3125C8.75 44.655 6.79 42.5 4.375 42.5C1.96 42.5 0 44.655 0 47.3125C0 51.0975 4.935 55.5325 7.3925 57.505C8.1825 58.14 9.315 58.14 10.105 57.505C12.5625 55.5325 17.4975 51.1 17.4975 47.3125C17.4975 44.655 15.54 42.5 13.125 42.5ZM55.7825 20.095C54.455 20.47 53.6825 21.8525 54.06 23.18C54.6825 25.39 55 27.6825 55 30C55 43.785 43.785 55 30 55C27.6825 55 25.3875 54.685 23.18 54.06C21.8425 53.6875 20.4675 54.455 20.095 55.785C19.72 57.1125 20.49 58.495 21.8175 58.87C24.47 59.62 27.22 60 29.9975 60C46.54 60 59.9975 46.5425 59.9975 30C59.9975 27.225 59.6175 24.4725 58.8675 21.82C58.4925 20.49 57.115 19.725 55.7825 20.095ZM2.9525 37.5C3.1025 37.5 3.255 37.4875 3.4075 37.4575C4.765 37.2075 5.6625 35.905 5.415 34.5475C5.1425 33.055 5.0025 31.5275 5.0025 30C5 16.215 16.215 5 30 5C31.53 5 33.0625 5.1375 34.5475 5.4125C35.9325 5.665 37.2075 4.7625 37.4575 3.405C37.7075 2.0475 36.8075 0.745 35.45 0.495C33.665 0.1675 31.8325 0 29.9975 0C13.4575 0 0 13.4575 0 30C0 31.8275 0.165 33.6625 0.495 35.4525C0.7175 36.6575 1.7675 37.5 2.95 37.5H2.9525Z" fill="#E6514A"/>
</g>
<defs>
<clipPath id="clip0_9827_265">
<rect width="60" height="60" fill="white"/>
</clipPath>
</defs>
</svg>
