<svg width="60" height="61" viewBox="0 0 60 61" fill="none" xmlns="http://www.w3.org/2000/svg">
<path d="M60 40.0336V52.5336C60 56.6761 56.6425 60.0336 52.5 60.0336H40C32.6125 60.0336 26.1625 55.9961 22.7 50.0236C24.6225 50.0086 26.495 49.7961 28.305 49.4036C31.0575 52.8311 35.2725 55.0336 40 55.0336H52.5C53.88 55.0336 55 53.9136 55 52.5336V40.0336C55 35.3061 52.7975 31.0911 49.37 28.3386C49.76 26.5286 49.975 24.6561 49.99 22.7336C55.9625 26.1961 60 32.6461 60 40.0336ZM20.345 45.0336H9.1525C4.105 45.0336 0 40.9211 0 35.8686V23.2736C0 11.5061 9.5575 0.891129 20.8725 0.0911289C34.16 -1.17137 46.1875 10.8786 44.9425 24.1611C44.115 35.8661 33.3125 45.0336 20.345 45.0336ZM39.955 23.8111C40.8725 13.9361 32.3625 4.81863 22.47 5.03363C13.1325 4.93863 5.0025 13.5911 5 23.2736V35.8686C5 38.1661 6.8625 40.0336 9.1525 40.0336H20.345C30.5275 40.0336 39.325 32.7561 39.955 23.8111ZM22.5 18.7836C20.43 18.7836 18.75 20.4636 18.75 22.5336C18.75 24.6036 20.43 26.2836 22.5 26.2836C24.57 26.2836 26.25 24.6036 26.25 22.5336C26.25 20.4636 24.57 18.7836 22.5 18.7836ZM12.5 18.7836C10.43 18.7836 8.75 20.4636 8.75 22.5336C8.75 24.6036 10.43 26.2836 12.5 26.2836C14.57 26.2836 16.25 24.6036 16.25 22.5336C16.25 20.4636 14.57 18.7836 12.5 18.7836ZM32.5 18.7836C30.43 18.7836 28.75 20.4636 28.75 22.5336C28.75 24.6036 30.43 26.2836 32.5 26.2836C34.57 26.2836 36.25 24.6036 36.25 22.5336C36.25 20.4636 34.57 18.7836 32.5 18.7836Z" fill="#E6514A"/>
</svg>
