<svg width="60" height="60" viewBox="0 0 60 60" fill="none" xmlns="http://www.w3.org/2000/svg">
<g clip-path="url(#clip0_9827_280)">
<path d="M56.9325 19.3025C55.7602 17.9515 54.3113 16.8682 52.684 16.1259C51.0566 15.3835 49.2887 14.9996 47.5 15H37.5275L38.3675 9.89747C38.6647 8.10062 38.3061 6.2568 37.3572 4.70232C36.4082 3.14783 34.9321 1.98625 33.198 1.42945C31.4639 0.872644 29.5875 0.957719 27.9109 1.66916C26.2344 2.38059 24.8694 3.67098 24.065 5.30497L19.28 15H12.5C9.18601 15.0039 6.00889 16.3222 3.66555 18.6655C1.3222 21.0089 0.00396964 24.186 0 27.5L0 40C0.00396964 43.314 1.3222 46.4911 3.66555 48.8344C6.00889 51.1778 9.18601 52.496 12.5 52.5H45.75C48.7587 52.4877 51.6629 51.3957 53.9345 49.4229C56.2061 47.45 57.6939 44.7273 58.1275 41.75L59.89 29.25C60.1382 27.4768 60.0026 25.671 59.4924 23.9548C58.9821 22.2386 58.1091 20.652 56.9325 19.3025ZM5 40V27.5C5 25.5108 5.79018 23.6032 7.1967 22.1967C8.60322 20.7901 10.5109 20 12.5 20H17.5V47.5H12.5C10.5109 47.5 8.60322 46.7098 7.1967 45.3033C5.79018 43.8967 5 41.9891 5 40ZM54.9275 28.5475L53.1625 41.0475C52.9044 42.8324 52.0143 44.4655 50.654 45.6497C49.2937 46.8338 47.5535 47.4904 45.75 47.5H22.5V19.335C22.7356 19.1297 22.9306 18.8821 23.075 18.605L28.5475 7.51747C28.7527 7.14729 29.0429 6.8311 29.3941 6.59487C29.7453 6.35864 30.1475 6.20913 30.5678 6.15861C30.988 6.1081 31.4142 6.15802 31.8114 6.30428C32.2086 6.45055 32.5654 6.68897 32.8525 6.99997C33.0981 7.28558 33.2777 7.62189 33.3784 7.98489C33.4791 8.34789 33.4984 8.72863 33.435 9.09997L32.115 17.1C32.0571 17.4574 32.0775 17.8232 32.1748 18.172C32.2721 18.5208 32.4441 18.8442 32.6788 19.12C32.9134 19.3958 33.2052 19.6174 33.5339 19.7693C33.8626 19.9212 34.2204 19.9999 34.5825 20H47.5C48.5735 19.9998 49.6345 20.2301 50.6114 20.6753C51.5882 21.1205 52.4581 21.7702 53.1622 22.5806C53.8664 23.3909 54.3883 24.3429 54.6929 25.3723C54.9974 26.4017 55.0774 27.4845 54.9275 28.5475Z" fill="#E6514A"/>
</g>
<defs>
<clipPath id="clip0_9827_280">
<rect width="60" height="60" fill="white"/>
</clipPath>
</defs>
</svg>
