<svg width="24" height="24" viewBox="0 0 24 24" fill="none" xmlns="http://www.w3.org/2000/svg">
<path d="M19.2881 3.22095C19.7054 2.92472 20.2792 3.03327 20.5654 3.45728C22.1341 5.76659 22.998 8.80199 22.998 12.0002C22.998 15.2006 22.1341 18.2349 20.5654 20.5442C20.3945 20.7963 20.1123 20.9475 19.8115 20.9475C19.6249 20.9475 19.4443 20.889 19.2891 20.7795C18.8741 20.4821 18.7713 19.897 19.0586 19.4719C20.4153 17.473 21.163 14.8193 21.1631 12.0002C21.1631 9.18204 20.4155 6.52761 19.0586 4.52856C18.7714 4.10451 18.8739 3.5183 19.2881 3.22095ZM16.127 6.25806C16.5453 5.96313 17.117 6.06943 17.4053 6.49438C18.4182 7.98669 18.9766 9.94215 18.9766 12.0002C18.9765 14.0581 18.418 16.0129 17.4053 17.5051C17.2334 17.7573 16.9522 17.9093 16.6514 17.9094C16.4647 17.9094 16.2831 17.851 16.1279 17.7415C15.7127 17.4441 15.6101 16.8579 15.8984 16.4338C16.7005 15.2519 17.1416 13.677 17.1416 12.0002C17.1416 10.3222 16.7006 8.74771 15.8984 7.56567C15.6102 7.14162 15.7128 6.55539 16.127 6.25806Z" fill="#3035C4"/>
<path d="M4.71191 3.22095C4.2946 2.92472 3.72083 3.03327 3.43457 3.45728C1.86587 5.76659 1.00195 8.80199 1.00195 12.0002C1.00199 15.2006 1.8659 18.2349 3.43457 20.5442C3.60549 20.7963 3.88768 20.9475 4.18848 20.9475C4.37513 20.9475 4.55575 20.889 4.71094 20.7795C5.12595 20.4821 5.22866 19.897 4.94141 19.4719C3.58468 17.473 2.83695 14.8193 2.83691 12.0002C2.83691 9.18204 3.58452 6.52761 4.94141 4.52856C5.22859 4.10451 5.12606 3.5183 4.71191 3.22095ZM7.87305 6.25806C7.45472 5.96313 6.88304 6.06943 6.59473 6.49438C5.58178 7.98669 5.02344 9.94215 5.02344 12.0002C5.02346 14.0581 5.58197 16.0129 6.59473 17.5051C6.76664 17.7573 7.0478 17.9093 7.34863 17.9094C7.53528 17.9094 7.71688 17.851 7.87207 17.7415C8.28726 17.4441 8.38991 16.8579 8.10156 16.4338C7.29953 15.2519 6.85842 13.677 6.8584 12.0002C6.8584 10.3222 7.29939 8.74771 8.10156 7.56567C8.38975 7.14162 8.28717 6.55539 7.87305 6.25806Z" fill="#3035C4"/>
<circle cx="12" cy="12" r="2" fill="#3035C4"/>
</svg>
