<svg width="24" height="24" viewBox="0 0 24 24" fill="none" xmlns="http://www.w3.org/2000/svg">
<path d="M9.94085 6.2808L9.55316 5.768L5.29983 2.53643L6.72208 0.655242L9.44794 2.89255L9.36603 1.07403L11.4931 0.809087L11.8687 2.67414L13.9845 1.49353e-05L15.7704 1.33614L12.726 5.51825L12.3617 6.06239L12.8193 9.74596L15.781 7.50677L15.7224 6.74517L16.3227 1.72453L18.6728 2.09679L18.2491 5.64077L19.73 4.52117L21.1515 6.40142L19.6707 7.52101L23.1959 8.0794L22.9134 10.4421L17.7901 9.48007L17.2025 9.38701L14.2408 11.6262L17.6601 13.0706L18.283 12.8683L23.0074 10.9083L23.9353 13.1618L20.6565 14.2975L22.3485 15.1674L21.643 17.3125L19.7864 16.5671L21.196 19.7996L18.9983 20.6552L16.884 15.8064L16.6609 15.1692L13.4061 13.6005L13.8637 17.284L14.4159 17.6724L18.5047 21.0284L17.247 22.7852L14.3566 20.6723L14.7323 22.5373L12.3115 22.7557L12.1003 20.7663L9.94928 23.7357L8.03411 22.2287L11.2077 18.2175L11.5721 17.6734L11.1145 13.9898L8.3173 16.1046L8.08214 16.8197L7.61111 22.0112L5.26092 21.639L5.68465 18.095L4.20377 19.2146L2.78223 17.3343L4.26311 16.2147L0.737828 15.6564L1.02031 13.2937L6.01444 14.0848L6.89577 14.2244L9.69297 12.1096L6.27362 10.6652L5.65077 10.8674L0.797162 12.6565L-0.00152745 10.574L3.3126 9.14292L1.45604 8.39747L2.4553 6.29882L4.01808 6.99774L2.77309 3.64083L4.8062 2.90964L6.9205 7.75839L7.14365 8.39559L10.563 9.83996L9.94085 6.2808Z" fill="#3035C4"/>
</svg>
